<?xml version="1.0" encoding="UTF-8"?>
<svg version="1.1" xmlns="http://www.w3.org/2000/svg" width="102" height="102">
<path d="M0 0 C33.66 0 67.32 0 102 0 C102 33.66 102 67.32 102 102 C68.34 102 34.68 102 0 102 C0 68.34 0 34.68 0 0 Z " fill="#1C528B" transform="translate(0,0)"/>
<path d="M0 0 C33.66 0 67.32 0 102 0 C102 33.66 102 67.32 102 102 C91.77 102 81.54 102 71 102 C68 92 68 92 68 88 C76.415 87.505 76.415 87.505 85 87 C86.74257675 83.51484649 85.68897919 79.73499247 85 76 C84.30096481 74.09354039 83.59917479 72.18708269 82.828125 70.30859375 C80.48881376 63.78721193 79.3558265 56.7791325 78 50 C74.7 49.01 71.4 48.02 68 47 C68 46.01 68 45.02 68 44 C68.56589844 43.84144531 69.13179688 43.68289062 69.71484375 43.51953125 C70.81505859 43.16955078 70.81505859 43.16955078 71.9375 42.8125 C72.66839844 42.59207031 73.39929688 42.37164062 74.15234375 42.14453125 C76.21645478 41.12377102 76.21645478 41.12377102 76.875 38.71875 C77.02243238 35.5120958 76.34994607 33.6135138 75.0625 30.6875 C74.68222656 29.80449219 74.30195312 28.92148437 73.91015625 28.01171875 C73.45962891 27.01591797 73.45962891 27.01591797 73 26 C72.54625 26.66 72.0925 27.32 71.625 28 C71.08875 28.66 70.5525 29.32 70 30 C69.34 30 68.68 30 68 30 C66.64560332 27.29120665 66.93498549 24.99066732 67 22 C68.32 21.67 69.64 21.34 71 21 C70.84004153 16.1147161 70.84004153 16.1147161 68.125 12.375 C67.42375 11.92125 66.7225 11.4675 66 11 C65.525625 10.154375 65.05125 9.30875 64.5625 8.4375 C62.56909793 5.32779276 61.59146528 4.8405557 58 4 C51.3765431 3.15493826 47.01635999 3.91228347 41.49609375 7.7109375 C39.86486274 8.94887209 39.86486274 8.94887209 39 11 C38.01 11 37.02 11 36 11 C35.67 12.65 35.34 14.3 35 16 C28.73 16.33 22.46 16.66 16 17 C15.67 19.64 15.34 22.28 15 25 C14.44654021 27.39159267 13.73329347 29.65346091 13 32 C12.34 32 11.68 32 11 32 C10.67 32.99 10.34 33.98 10 35 C9.34 35 8.68 35 8 35 C7.87625 35.680625 7.7525 36.36125 7.625 37.0625 C6.90899123 40.4277412 5.97054875 43.70013425 5 47 C4.01 47 3.02 47 2 47 C2 45.68 2 44.36 2 43 C1.34 43 0.68 43 0 43 C0 28.81 0 14.62 0 0 Z " fill="#226BA1" transform="translate(0,0)"/>
<path d="M0 0 C3.11754601 2.22681858 4.62599991 4.63524123 6.625 7.875 C7.615 8.535 8.605 9.195 9.625 9.875 C10.32552461 12.538063 10.40244818 15.11535737 10.625 17.875 C9.305 17.875 7.985 17.875 6.625 17.875 C6.625 20.515 6.625 23.155 6.625 25.875 C9.13583114 24.61958443 9.49625446 23.37436512 10.625 20.875 C14.09951253 24.01767706 15.46671837 27.39104613 16.625 31.875 C16.625 34.6875 16.625 34.6875 15.625 36.875 C12.30535674 39.47688256 10.93183959 39.875 6.625 39.875 C6.625 40.865 6.625 41.855 6.625 42.875 C8.61067708 43.0703125 10.59635417 43.265625 12.58203125 43.4609375 C14.625 43.875 14.625 43.875 17.625 45.875 C18.28048519 48.55229284 18.78398272 51.09771216 19.1875 53.8125 C20.03285489 59.63180358 20.03285489 59.63180358 22.625 64.875 C24.35926281 69.97577296 25.75123728 75.44679692 25.625 80.875 C24.965 81.865 24.305 82.855 23.625 83.875 C20.67435852 84.0958564 17.94131769 84.15560989 15 84.0625 C13.79730469 84.04219727 13.79730469 84.04219727 12.5703125 84.02148438 C10.58825622 83.98609051 8.60654449 83.93228234 6.625 83.875 C6.8415625 84.63425781 7.058125 85.39351563 7.28125 86.17578125 C7.5596875 87.16964844 7.838125 88.16351563 8.125 89.1875 C8.4034375 90.17363281 8.681875 91.15976563 8.96875 92.17578125 C9.625 94.875 9.625 94.875 9.625 97.875 C-3.575 97.875 -16.775 97.875 -30.375 97.875 C-30.045 93.255 -29.715 88.635 -29.375 83.875 C-30.365 83.875 -31.355 83.875 -32.375 83.875 C-32.375 83.215 -32.375 82.555 -32.375 81.875 C-33.25478516 81.49601562 -33.25478516 81.49601562 -34.15234375 81.109375 C-39.64841897 78.05707312 -44.33771986 71.7321804 -46.375 65.875 C-46.15983954 62.14555195 -46.03553508 60.53553508 -43.375 57.875 C-42.375 58.875 -42.375 58.875 -42.3125 61.4375 C-42.333125 62.241875 -42.35375 63.04625 -42.375 63.875 C-41.6325 63.05 -40.89 62.225 -40.125 61.375 C-37.375 58.875 -37.375 58.875 -33.375 58.875 C-32.715 59.535 -32.055 60.195 -31.375 60.875 C-29.6104175 56.96771017 -28.77259748 53.15647693 -28.03515625 48.9609375 C-27.25259371 46.48822511 -26.44091818 45.42931109 -24.375 43.875 C-20.8125 43.5625 -20.8125 43.5625 -17.375 43.875 C-16.715 44.535 -16.055 45.195 -15.375 45.875 C-17.05272269 49.47012004 -18.59377622 52.09377622 -21.375 54.875 C-22.526378 58.25911777 -22.50865178 61.51094458 -22.5 65.0625 C-22.50257812 66.12855469 -22.50515625 67.19460937 -22.5078125 68.29296875 C-22.66758972 70.80569348 -22.66758972 70.80569348 -21.375 71.875 C-21.30294489 73.56108966 -21.29113932 75.25000659 -21.3125 76.9375 C-21.32152344 77.85660156 -21.33054687 78.77570313 -21.33984375 79.72265625 C-21.35144531 80.43292969 -21.36304687 81.14320312 -21.375 81.875 C-20.055 81.875 -18.735 81.875 -17.375 81.875 C-16.715 78.905 -16.055 75.935 -15.375 72.875 C-14.694375 73.349375 -14.01375 73.82375 -13.3125 74.3125 C-9.95658044 76.0975636 -7.13338519 76.50653086 -3.375 76.875 C-3.045 77.865 -2.715 78.855 -2.375 79.875 C-0.395 79.38 -0.395 79.38 1.625 78.875 C2.33801804 73.28307272 2.33801804 73.28307272 0.53515625 68.12890625 C-1.11868853 66.46496269 -1.11868853 66.46496269 -4.375 64.875 C-8.16173743 64.9258054 -8.16173743 64.9258054 -11.375 65.875 C-12.80886454 61.57340639 -11.29935241 58.84886596 -9.375 54.875 C-8.05633728 53.196702 -6.72419532 51.52885233 -5.375 49.875 C-4.69636945 47.8790278 -4.02858081 45.87931449 -3.375 43.875 C-1.9375 42.3125 -1.9375 42.3125 -0.375 40.875 C0.65857147 39.22894174 1.66560332 37.56536558 2.625 35.875 C1.635 36.205 0.645 36.535 -0.375 36.875 C-0.87 32.42 -0.87 32.42 -1.375 27.875 C-0.715 27.875 -0.055 27.875 0.625 27.875 C0.625 25.565 0.625 23.255 0.625 20.875 C-0.365 20.875 -1.355 20.875 -2.375 20.875 C-2.375 21.535 -2.375 22.195 -2.375 22.875 C-3.695 22.545 -5.015 22.215 -6.375 21.875 C-6.375 20.885 -6.375 19.895 -6.375 18.875 C-4.395 18.875 -2.415 18.875 -0.375 18.875 C-2.00081757 13.91190704 -2.00081757 13.91190704 -5.5625 10.4375 C-6.160625 10.251875 -6.75875 10.06625 -7.375 9.875 C-7.6225 10.7825 -7.87 11.69 -8.125 12.625 C-9.375 15.875 -9.375 15.875 -11.5 17.9375 C-13.65436535 19.75819516 -13.65436535 19.75819516 -13.625 22.625 C-13.5425 23.3675 -13.46 24.11 -13.375 24.875 C-15.54374252 24.36896008 -17.37467627 23.87516187 -19.375 22.875 C-17.25527077 29.99273714 -17.25527077 29.99273714 -12.125 35 C-10.76375 35.433125 -10.76375 35.433125 -9.375 35.875 C-9.375 38.185 -9.375 40.495 -9.375 42.875 C-10.365 43.205 -11.355 43.535 -12.375 43.875 C-13.035 43.215 -13.695 42.555 -14.375 41.875 C-15.48875 41.9575 -16.6025 42.04 -17.75 42.125 C-21.375 41.875 -21.375 41.875 -23.8125 39.1875 C-25.31677872 35.99842912 -25.78045674 34.32138227 -25.375 30.875 C-24.715 30.875 -24.055 30.875 -23.375 30.875 C-23.6225 29.7303125 -23.6225 29.7303125 -23.875 28.5625 C-25.13318226 19.2834058 -25.13281597 10.68917881 -19.375 2.875 C-13.54896843 -2.38263824 -7.17820562 -2.39273521 0 0 Z " fill="#502E45" transform="translate(61.375,4.125)"/>
<path d="M0 0 C33.66 0 67.32 0 102 0 C102 10.56 102 21.12 102 32 C96.90909091 30.72727273 96.90909091 30.72727273 95 28 C94.63239269 25.67182036 94.29758419 23.3381615 94 21 C91.60236815 18.60236815 90.66726502 18.65719414 87.375 18.375 C86.55773437 18.30023437 85.74046875 18.22546875 84.8984375 18.1484375 C84.27195312 18.09945313 83.64546875 18.05046875 83 18 C83 16.68 83 15.36 83 14 C80.69 14 78.38 14 76 14 C75.67 14.66 75.34 15.32 75 16 C74.01 15.34 73.02 14.68 72 14 C71.84337891 13.04867188 71.84337891 13.04867188 71.68359375 12.078125 C71.1432135 9.70959558 71.1432135 9.70959558 68.41015625 8.296875 C58.58282705 3.71479908 58.58282705 3.71479908 48 4 C44.36595255 5.64254131 40.82898116 7.34203768 39 11 C38.01 11 37.02 11 36 11 C35.67 12.65 35.34 14.3 35 16 C28.73 16.33 22.46 16.66 16 17 C15.67 19.64 15.34 22.28 15 25 C14.44654021 27.39159267 13.73329347 29.65346091 13 32 C12.34 32 11.68 32 11 32 C10.67 32.99 10.34 33.98 10 35 C9.34 35 8.68 35 8 35 C7.87625 35.680625 7.7525 36.36125 7.625 37.0625 C6.90899123 40.4277412 5.97054875 43.70013425 5 47 C4.01 47 3.02 47 2 47 C2 45.68 2 44.36 2 43 C1.34 43 0.68 43 0 43 C0 28.81 0 14.62 0 0 Z " fill="#1F66A4" transform="translate(0,0)"/>
<path d="M0 0 C3.65316671 1.24976756 4.78065836 1.67098753 7 5 C7 6.32 7 7.64 7 9 C5.02 9 3.04 9 1 9 C1.495 10.485 1.495 10.485 2 12 C2.99 12.33 3.98 12.66 5 13 C5 12.34 5 11.68 5 11 C5.99 11 6.98 11 8 11 C8 13.31 8 15.62 8 18 C7.34 18 6.68 18 6 18 C6.66 20.64 7.32 23.28 8 26 C8.66 26 9.32 26 10 26 C9.02404957 28.9278513 8.23864272 30.76881487 6 32.9375 C3.53602243 35.47847687 3.09649888 37.64600343 2 41 C1.17342542 42.35061206 0.31701079 43.6832467 -0.5625 45 C-2.72878952 48.31314867 -3.69919835 50.98931139 -4 55 C-2.989375 54.71125 -1.97875 54.4225 -0.9375 54.125 C3.11381906 53.9963867 3.86452157 54.09221603 6.9375 56.375 C9.07341514 58.39649111 9.90786067 59.49323367 10.4375 62.40625 C10.4375 64.64721556 10.31051335 66.7820475 10 69 C7.525 69.495 7.525 69.495 5 70 C4.67 69.34 4.34 68.68 4 68 C2.906875 67.855625 1.81375 67.71125 0.6875 67.5625 C-2.94610928 67.00822062 -4.35951034 66.42925049 -7 64 C-7.99 66.64 -8.98 69.28 -10 72 C-11.32 72 -12.64 72 -14 72 C-14.09087891 70.93458984 -14.09087891 70.93458984 -14.18359375 69.84765625 C-14.26738281 68.92855469 -14.35117187 68.00945312 -14.4375 67.0625 C-14.51871094 66.14597656 -14.59992187 65.22945313 -14.68359375 64.28515625 C-14.76044976 62.03840268 -14.76044976 62.03840268 -16 61 C-16.57237511 54.02142651 -16.52233517 48.13147234 -13 42 C-12 41 -11 40 -10 39 C-10 37.68 -10 36.36 -10 35 C-13.37400578 34.58274322 -13.37400578 34.58274322 -17 35 C-20.03559629 38.45429923 -20.82760636 42.62306373 -22 47 C-22.64199649 48.67632417 -23.29894157 50.34750513 -24 52 C-24.99 51.01 -25.98 50.02 -27 49 C-30.44630058 50.14876686 -30.91620679 51.19140915 -33 54 C-33.66 54 -34.32 54 -35 54 C-35.33 51.69 -35.66 49.38 -36 47 C-37.485 46.7215625 -37.485 46.7215625 -39 46.4375 C-43.90067044 45.05448871 -47.71743596 41.82823702 -51 38 C-51 37.01 -51 36.02 -51 35 C-47.62537285 35.54723683 -45.91765 36.0549 -43 38 C-41.34450469 38.38499891 -39.6777567 38.72793135 -38 39 C-38 38.34 -38 37.68 -38 37 C-35.03 37.99 -32.06 38.98 -29 40 C-29 38.68 -29 37.36 -29 36 C-29.66 36 -30.32 36 -31 36 C-31 35.34 -31 34.68 -31 34 C-35.95 33.67 -40.9 33.34 -46 33 C-46 31.02 -46 29.04 -46 27 C-45.67 27 -45.34 27 -45 27 C-45 28.65 -45 30.3 -45 32 C-44.34 31.67 -43.68 31.34 -43 31 C-43 28.69 -43 26.38 -43 24 C-39.37 24 -35.74 24 -32 24 C-33.66342837 22.33657163 -35.7825709 22.63951903 -38.0625 22.4375 C-38.98160156 22.35371094 -39.90070312 22.26992188 -40.84765625 22.18359375 C-41.91306641 22.09271484 -41.91306641 22.09271484 -43 22 C-43 21.67 -43 21.34 -43 21 C-39.04 21 -35.08 21 -31 21 C-30.34 22.65 -29.68 24.3 -29 26 C-28.34 26 -27.68 26 -27 26 C-26.9071875 24.63875 -26.9071875 24.63875 -26.8125 23.25 C-25.80707694 19.22830776 -24.39893348 18.23832205 -21 16 C-20.34 15.67 -19.68 15.34 -19 15 C-19.05220703 13.98679687 -19.05220703 13.98679687 -19.10546875 12.953125 C-19.13253906 12.06109375 -19.15960938 11.1690625 -19.1875 10.25 C-19.22230469 9.36828125 -19.25710937 8.4865625 -19.29296875 7.578125 C-19 5 -19 5 -16 1 C-16 7.6 -16 14.2 -16 21 C-16.66 21 -17.32 21 -18 21 C-16.99806563 24.79303725 -16.18975773 27.71536341 -14 31 C-10.43230448 31.73606499 -10.43230448 31.73606499 -7 32 C-6.67 31.34 -6.34 30.68 -6 30 C-5.34 30.99 -4.68 31.98 -4 33 C-3.34 33 -2.68 33 -2 33 C-2 30.69 -2 28.38 -2 26 C-2.5775 25.896875 -3.155 25.79375 -3.75 25.6875 C-6.43283024 24.86774632 -7.94744333 23.91571956 -10 22 C-11.72592217 18.63445177 -12 16.87180591 -12 13 C-10.02 13.66 -8.04 14.32 -6 15 C-6.226875 14.2575 -6.45375 13.515 -6.6875 12.75 C-7 10 -7 10 -5.6875 7.6875 C-5.130625 7.130625 -4.57375 6.57375 -4 6 C-3.34 6 -2.68 6 -2 6 C-1.34 4.02 -0.68 2.04 0 0 Z " fill="#EBAA8C" transform="translate(54,14)"/>
<path d="M0 0 C3.11754601 2.22681858 4.62599991 4.63524123 6.625 7.875 C7.615 8.535 8.605 9.195 9.625 9.875 C10.32552461 12.538063 10.40244818 15.11535737 10.625 17.875 C9.305 17.875 7.985 17.875 6.625 17.875 C6.625 20.515 6.625 23.155 6.625 25.875 C9.13583114 24.61958443 9.49625446 23.37436512 10.625 20.875 C14.09951253 24.01767706 15.46671837 27.39104613 16.625 31.875 C16.625 34.6875 16.625 34.6875 15.625 36.875 C12.30535674 39.47688256 10.93183959 39.875 6.625 39.875 C6.625 40.535 6.625 41.195 6.625 41.875 C3.16 42.37 3.16 42.37 -0.375 42.875 C1.5 38.125 1.5 38.125 2.625 35.875 C1.14 36.37 1.14 36.37 -0.375 36.875 C-0.705 33.905 -1.035 30.935 -1.375 27.875 C-0.715 27.875 -0.055 27.875 0.625 27.875 C0.625 25.565 0.625 23.255 0.625 20.875 C-0.365 20.875 -1.355 20.875 -2.375 20.875 C-2.375 21.535 -2.375 22.195 -2.375 22.875 C-3.695 22.545 -5.015 22.215 -6.375 21.875 C-6.375 20.885 -6.375 19.895 -6.375 18.875 C-4.395 18.875 -2.415 18.875 -0.375 18.875 C-2.00081757 13.91190704 -2.00081757 13.91190704 -5.5625 10.4375 C-6.160625 10.251875 -6.75875 10.06625 -7.375 9.875 C-7.6225 10.7825 -7.87 11.69 -8.125 12.625 C-9.375 15.875 -9.375 15.875 -11.5 17.9375 C-13.65436535 19.75819516 -13.65436535 19.75819516 -13.625 22.625 C-13.50125 23.73875 -13.50125 23.73875 -13.375 24.875 C-15.54374252 24.36896008 -17.37467627 23.87516187 -19.375 22.875 C-17.25527077 29.99273714 -17.25527077 29.99273714 -12.125 35 C-11.2175 35.28875 -10.31 35.5775 -9.375 35.875 C-9.375 38.185 -9.375 40.495 -9.375 42.875 C-10.86 43.37 -10.86 43.37 -12.375 43.875 C-13.035 43.215 -13.695 42.555 -14.375 41.875 C-15.48875 41.9575 -16.6025 42.04 -17.75 42.125 C-21.375 41.875 -21.375 41.875 -23.8125 39.1875 C-25.31677872 35.99842912 -25.78045674 34.32138227 -25.375 30.875 C-24.715 30.875 -24.055 30.875 -23.375 30.875 C-23.54 30.111875 -23.705 29.34875 -23.875 28.5625 C-25.13318226 19.2834058 -25.13281597 10.68917881 -19.375 2.875 C-13.54896843 -2.38263824 -7.17820562 -2.39273521 0 0 Z " fill="#3A2425" transform="translate(61.375,4.125)"/>
<path d="M0 0 C0.81082031 0.07605469 1.62164062 0.15210938 2.45703125 0.23046875 C6.1421044 1.01598506 8.92430473 1.87861111 12.1875 3.8125 C13.19121145 6.72789571 13.68886964 8.82352119 14 11.8125 C14.66911352 17.60224537 14.66911352 17.60224537 17.1875 22.8125 C17.6015625 25.94921875 17.6015625 25.94921875 17.8125 29.5 C17.88726562 30.67949219 17.96203125 31.85898438 18.0390625 33.07421875 C18.08804688 33.97785156 18.13703125 34.88148437 18.1875 35.8125 C16.41800388 36.31721197 14.64684777 36.81610685 12.875 37.3125 C11.88886719 37.5909375 10.90273437 37.869375 9.88671875 38.15625 C7.1875 38.8125 7.1875 38.8125 4.1875 38.8125 C4.1875 39.4725 4.1875 40.1325 4.1875 40.8125 C2.75215159 41.0351746 1.31404475 41.24011906 -0.125 41.4375 C-0.92550781 41.55351563 -1.72601563 41.66953125 -2.55078125 41.7890625 C-4.8125 41.8125 -4.8125 41.8125 -7.8125 39.8125 C-7.8125 39.1525 -7.8125 38.4925 -7.8125 37.8125 C-5.8325 37.3175 -5.8325 37.3175 -3.8125 36.8125 C-3.09948196 31.22057272 -3.09948196 31.22057272 -4.90234375 26.06640625 C-6.55618853 24.40246269 -6.55618853 24.40246269 -9.8125 22.8125 C-13.59923743 22.8633054 -13.59923743 22.8633054 -16.8125 23.8125 C-18.24636454 19.51090639 -16.73685241 16.78636596 -14.8125 12.8125 C-13.49383728 11.134202 -12.16169532 9.46635233 -10.8125 7.8125 C-10.4825 6.760625 -10.1525 5.70875 -9.8125 4.625 C-8.8125 1.8125 -8.8125 1.8125 -7.05078125 0.625 C-4.44194931 -0.32201055 -2.75036595 -0.29885866 0 0 Z " fill="#752213" transform="translate(66.8125,46.1875)"/>
<path d="M0 0 C2.875 0.6875 2.875 0.6875 6 2 C7.375 4.625 7.375 4.625 8 7 C8.99 7 9.98 7 11 7 C13.33333333 7 15.66666667 7 18 7 C18 8.32 18 9.64 18 11 C18.63808594 10.98839844 19.27617188 10.97679687 19.93359375 10.96484375 C20.75988281 10.95582031 21.58617188 10.94679688 22.4375 10.9375 C23.26121094 10.92589844 24.08492187 10.91429687 24.93359375 10.90234375 C27 11 27 11 28 12 C28.09969841 13.74765452 28.12968045 15.4995103 28.125 17.25 C28.12886719 18.68085937 28.12886719 18.68085937 28.1328125 20.140625 C28 23 28 23 27.4296875 25.671875 C26.77956663 28.14396672 26.77956663 28.14396672 28 31 C27.01 31 26.02 31 25 31 C25 31.66 25 32.32 25 33 C25.639375 33.28875 26.27875 33.5775 26.9375 33.875 C29 35 29 35 30 37 C30.07065617 39.04055005 30.08421976 41.08334257 30.0625 43.125 C30.05347656 44.22070312 30.04445313 45.31640625 30.03515625 46.4453125 C30.02355469 47.28835937 30.01195313 48.13140625 30 49 C28.02 49 26.04 49 24 49 C22.64908472 51.70183055 22.66141942 54.11808206 22.4375 57.125 C22.35371094 58.22070312 22.26992187 59.31640625 22.18359375 60.4453125 C22.09271484 61.70988281 22.09271484 61.70988281 22 63 C20.125 62.6875 20.125 62.6875 18 62 C15.59723991 58.39585987 15.09059164 54.99286955 14.375 50.8125 C14.2409375 50.06291016 14.106875 49.31332031 13.96875 48.54101562 C13.63954581 46.69512072 13.31893502 44.84769691 13 43 C8.05 41.515 8.05 41.515 3 40 C3 39.01 3 38.02 3 37 C3.56589844 36.84144531 4.13179688 36.68289062 4.71484375 36.51953125 C5.81505859 36.16955078 5.81505859 36.16955078 6.9375 35.8125 C7.66839844 35.59207031 8.39929688 35.37164062 9.15234375 35.14453125 C11.21645478 34.12377102 11.21645478 34.12377102 11.875 31.71875 C12.02243238 28.5120958 11.34994607 26.6135138 10.0625 23.6875 C9.49208984 22.36298828 9.49208984 22.36298828 8.91015625 21.01171875 C8.60980469 20.34785156 8.30945313 19.68398438 8 19 C7.319375 19.99 7.319375 19.99 6.625 21 C6.08875 21.66 5.5525 22.32 5 23 C4.34 23 3.68 23 3 23 C1.64560332 20.29120665 1.93498549 17.99066732 2 15 C3.32 14.67 4.64 14.34 6 14 C5.81314911 10.60465748 5.81314911 10.60465748 5 7 C3.05990478 5.29467677 3.05990478 5.29467677 1 4 C0.25 1.8125 0.25 1.8125 0 0 Z " fill="#4CA2D2" transform="translate(65,7)"/>
<path d="M0 0 C0.495 0.99 0.495 0.99 1 2 C0.00390625 3.77734375 0.00390625 3.77734375 -1.4375 5.9375 C-4.58924987 11.28328569 -4.50964799 15.94085168 -4 22 C-4.928125 22.350625 -5.85625 22.70125 -6.8125 23.0625 C-10.9857645 25.59919019 -11.46185496 27.4710174 -13 32 C-13.66 32 -14.32 32 -15 32 C-15.66 30.68 -16.32 29.36 -17 28 C-17.66 28 -18.32 28 -19 28 C-18.34 28.33 -17.68 28.66 -17 29 C-17.33 29.66 -17.66 30.32 -18 31 C-21.63 30.67 -25.26 30.34 -29 30 C-29 32.31 -29 34.62 -29 37 C-25.7 37 -22.4 37 -19 37 C-19 37.33 -19 37.66 -19 38 C-19.85464844 37.98839844 -20.70929687 37.97679687 -21.58984375 37.96484375 C-23.24693359 37.95130859 -23.24693359 37.95130859 -24.9375 37.9375 C-26.03964844 37.92589844 -27.14179688 37.91429687 -28.27734375 37.90234375 C-30.91447634 37.68737429 -30.91447634 37.68737429 -32 39 C-30.2365625 38.9690625 -30.2365625 38.9690625 -28.4375 38.9375 C-24.52586533 38.93052739 -20.85502056 39.35749657 -17 40 C-17 40.66 -17 41.32 -17 42 C-16.34 42 -15.68 42 -15 42 C-15 43.32 -15 44.64 -15 46 C-18.73487777 45.5020163 -20.81237635 45.12508244 -24 43 C-24 43.66 -24 44.32 -24 45 C-28.97306516 44.50269348 -32.63799813 43.44697666 -37 41 C-34.15884533 46.52446742 -30.44074469 50.05082151 -24.625 52.3125 C-23.75875 52.539375 -22.8925 52.76625 -22 53 C-23.32 55.64 -24.64 58.28 -26 61 C-26.99 61 -27.98 61 -29 61 C-29 60.01 -29 59.02 -29 58 C-29.99 58 -30.98 58 -32 58 C-32 56.68 -32 55.36 -32 54 C-33.32 54.66 -34.64 55.32 -36 56 C-38 54 -38 54 -38.1953125 50.5234375 C-38.18201493 49.14049032 -38.15816232 47.75761346 -38.125 46.375 C-38.11597656 45.66859375 -38.10695312 44.9621875 -38.09765625 44.234375 C-38.07407603 42.48943902 -38.03820461 40.74467705 -38 39 C-37.01 39 -36.02 39 -35 39 C-34.87625 37.948125 -34.7525 36.89625 -34.625 35.8125 C-33.83403127 30.98759073 -32.95165096 27.12839034 -29 24 C-28.34 24 -27.68 24 -27 24 C-27.020625 23.030625 -27.04125 22.06125 -27.0625 21.0625 C-27 18 -27 18 -26 17 C-25.79395915 15.67218122 -25.6337041 14.33704105 -25.5 13 C-25.11111111 9.11111111 -25.11111111 9.11111111 -24 8 C-22.58429877 7.91348389 -21.164405 7.89295096 -19.74609375 7.90234375 C-18.46508789 7.90717773 -18.46508789 7.90717773 -17.15820312 7.91210938 C-16.26037109 7.92048828 -15.36253906 7.92886719 -14.4375 7.9375 C-13.53580078 7.94201172 -12.63410156 7.94652344 -11.70507812 7.95117188 C-9.46998686 7.96299775 -7.23502563 7.9794778 -5 8 C-4.67 6.35 -4.34 4.7 -4 3 C-3.01 3 -2.02 3 -1 3 C-0.67 2.01 -0.34 1.02 0 0 Z " fill="#3B98D1" transform="translate(40,8)"/>
<path d="M0 0 C0.90238747 2.70716242 1.11851302 4.23776768 1.09765625 7.01171875 C1.09443359 7.76904297 1.09121094 8.52636719 1.08789062 9.30664062 C1.07532227 10.48516602 1.07532227 10.48516602 1.0625 11.6875 C1.05798828 12.48478516 1.05347656 13.28207031 1.04882812 14.10351562 C1.0370585 16.06904257 1.01912348 18.03453085 1 20 C0.34 20 -0.32 20 -1 20 C0.12628408 24.88056437 1.14620471 27.74836023 5 31 C5.66 31.66 6.32 32.32 7 33 C5.906875 33.061875 4.81375 33.12375 3.6875 33.1875 C-0.04619514 33.62135264 -0.04619514 33.62135264 -1.8125 36.125 C-3.15217432 39.36842205 -4.09233589 42.61138731 -5 46 C-5.64199649 47.67632417 -6.29894157 49.34750513 -7 51 C-7.99 50.01 -8.98 49.02 -10 48 C-13.44630058 49.14876686 -13.91620679 50.19140915 -16 53 C-16.66 53 -17.32 53 -18 53 C-18.33 50.69 -18.66 48.38 -19 46 C-20.485 45.7215625 -20.485 45.7215625 -22 45.4375 C-26.90067044 44.05448871 -30.71743596 40.82823702 -34 37 C-34 36.01 -34 35.02 -34 34 C-30.62537285 34.54723683 -28.91765 35.0549 -26 37 C-24.34450469 37.38499891 -22.6777567 37.72793135 -21 38 C-21 37.34 -21 36.68 -21 36 C-18.03 36.99 -15.06 37.98 -12 39 C-12 37.68 -12 36.36 -12 35 C-12.66 35 -13.32 35 -14 35 C-14 34.34 -14 33.68 -14 33 C-18.95 32.67 -23.9 32.34 -29 32 C-29 30.02 -29 28.04 -29 26 C-28.67 26 -28.34 26 -28 26 C-28 27.65 -28 29.3 -28 31 C-27.34 30.67 -26.68 30.34 -26 30 C-26 27.69 -26 25.38 -26 23 C-22.37 23 -18.74 23 -15 23 C-16.66342837 21.33657163 -18.7825709 21.63951903 -21.0625 21.4375 C-21.98160156 21.35371094 -22.90070312 21.26992188 -23.84765625 21.18359375 C-24.91306641 21.09271484 -24.91306641 21.09271484 -26 21 C-26 20.67 -26 20.34 -26 20 C-22.04 20 -18.08 20 -14 20 C-13.34 21.65 -12.68 23.3 -12 25 C-11.34 25 -10.68 25 -10 25 C-9.9071875 23.63875 -9.9071875 23.63875 -9.8125 22.25 C-8.80707694 18.22830776 -7.39893348 17.23832205 -4 15 C-3.34 14.67 -2.68 14.34 -2 14 C-2.02320312 13.32453125 -2.04640625 12.6490625 -2.0703125 11.953125 C-2.09738281 10.61507813 -2.09738281 10.61507813 -2.125 9.25 C-2.14820312 8.36828125 -2.17140625 7.4865625 -2.1953125 6.578125 C-1.99139502 3.8864142 -1.36551721 2.30095026 0 0 Z " fill="#7DD4E9" transform="translate(37,15)"/>
<path d="M0 0 C13.2 0 26.4 0 40 0 C38.35 1.65 36.7 3.3 35 5 C34.34 5.99 33.68 6.98 33 8 C33.495 9.485 33.495 9.485 34 11 C33.34 11.99 32.68 12.98 32 14 C31.401875 13.67 30.80375 13.34 30.1875 13 C27.94613529 11.79212012 27.94613529 11.79212012 25 12 C24.67 12.66 24.34 13.32 24 14 C23.34 14 22.68 14 22 14 C22 13.34 22 12.68 22 12 C16.42493943 13.0035109 13.58603596 14.66200401 10.078125 19.1484375 C8.51792718 21.82790766 8.8164097 23.94016164 9 27 C7.75777534 32.42149213 5.99812766 37.00187234 2 41 C1.34 41 0.68 41 0 41 C0 27.47 0 13.94 0 0 Z " fill="#153B77" transform="translate(0,0)"/>
<path d="M0 0 C9.9 0 19.8 0 30 0 C30 10.56 30 21.12 30 32 C24.90909091 30.72727273 24.90909091 30.72727273 23 28 C22.63239269 25.67182036 22.29758419 23.3381615 22 21 C19.60236815 18.60236815 18.66726502 18.65719414 15.375 18.375 C14.55773437 18.30023437 13.74046875 18.22546875 12.8984375 18.1484375 C12.27195312 18.09945313 11.64546875 18.05046875 11 18 C11 16.68 11 15.36 11 14 C9.68 14 8.36 14 7 14 C6.87625 12.329375 6.87625 12.329375 6.75 10.625 C6.5025 9.42875 6.255 8.2325 6 7 C4.08333333 5.83333333 4.08333333 5.83333333 2 5 C1.34 3.35 0.68 1.7 0 0 Z " fill="#184281" transform="translate(72,0)"/>
<path d="M0 0 C0.99 0.33 1.98 0.66 3 1 C3 1.99 3 2.98 3 4 C3.66 4.33 4.32 4.66 5 5 C5 5.66 5 6.32 5 7 C7.31 7.33 9.62 7.66 12 8 C10.99489725 11.01530826 10.21620075 12.79651694 7.875 15 C5.72660105 16.88071584 5.72660105 16.88071584 5.75 19.75 C5.87375 20.86375 5.87375 20.86375 6 22 C3.83125748 21.49396008 2.00032373 21.00016187 0 20 C2.11972923 27.11773714 2.11972923 27.11773714 7.25 32.125 C8.1575 32.41375 9.065 32.7025 10 33 C10 35.31 10 37.62 10 40 C8.515 40.495 8.515 40.495 7 41 C6.34 40.34 5.68 39.68 5 39 C3.88625 39.0825 2.7725 39.165 1.625 39.25 C-2 39 -2 39 -4.4375 36.3125 C-5.94177872 33.12342912 -6.40545674 31.44638227 -6 28 C-5.34 28 -4.68 28 -4 28 C-4.165 27.236875 -4.33 26.47375 -4.5 25.6875 C-5.80941076 16.03059566 -5.3913674 8.33211326 0 0 Z " fill="#491F17" transform="translate(42,7)"/>
<path d="M0 0 C0 8.25 0 16.5 0 25 C-9.9 25 -19.8 25 -30 25 C-27.15504351 22.15504351 -25.2951766 21.06836648 -21.75 19.375 C-16.69556206 16.6983397 -13.94562236 13.89553194 -10.69921875 9.2578125 C-8.66596214 6.55615199 -3.68893796 0 0 0 Z " fill="#153E7A" transform="translate(102,77)"/>
<path d="M0 0 C2.31332486 3.46998729 2.33957563 4.92509248 2 9 C1.34 9.99 0.68 10.98 0 12 C-2.95064148 12.2208564 -5.68368231 12.28060989 -8.625 12.1875 C-9.42679688 12.17396484 -10.22859375 12.16042969 -11.0546875 12.14648438 C-13.03674378 12.11109051 -15.01845551 12.05728234 -17 12 C-16.7834375 12.75925781 -16.566875 13.51851562 -16.34375 14.30078125 C-16.0653125 15.29464844 -15.786875 16.28851563 -15.5 17.3125 C-15.2215625 18.29863281 -14.943125 19.28476563 -14.65625 20.30078125 C-14 23 -14 23 -14 26 C-27.2 26 -40.4 26 -54 26 C-53.67 21.38 -53.34 16.76 -53 12 C-53.99 12 -54.98 12 -56 12 C-56 11.34 -56 10.68 -56 10 C-57.32 9.34 -58.64 8.68 -60 8 C-60 7.67 -60 7.34 -60 7 C-57.03 7.33 -54.06 7.66 -51 8 C-50.38125 9.918125 -50.38125 9.918125 -49.75 11.875 C-48.53279724 15.23626037 -48.53279724 15.23626037 -45.8125 17.5 C-45.214375 17.665 -44.61625 17.83 -44 18 C-44 19.98 -44 21.96 -44 24 C-40.93709203 23.69141842 -37.87476048 23.37743707 -34.8125 23.0625 C-33.94818359 22.97548828 -33.08386719 22.88847656 -32.19335938 22.79882812 C-31.35224609 22.71181641 -30.51113281 22.62480469 -29.64453125 22.53515625 C-28.87471924 22.456604 -28.10490723 22.37805176 -27.31176758 22.29711914 C-24.85665145 21.98157618 -22.42724174 21.48544835 -20 21 C-19.34 17.7 -18.68 14.4 -18 11 C-16.68 11 -15.36 11 -14 11 C-14 10.34 -14 9.68 -14 9 C-4.58997722 5.55580866 -4.58997722 5.55580866 0 6 C0 4.02 0 2.04 0 0 Z " fill="#3D385F" transform="translate(85,76)"/>
<path d="M0 0 C0.33 0 0.66 0 1 0 C1 1.65 1 3.3 1 5 C1.67546875 4.98839844 2.3509375 4.97679688 3.046875 4.96484375 C4.38492188 4.95130859 4.38492188 4.95130859 5.75 4.9375 C7.07257812 4.92009766 7.07257812 4.92009766 8.421875 4.90234375 C11 5 11 5 13.078125 5.56640625 C15.02595578 6.16865314 15.02595578 6.16865314 17.015625 5.4140625 C19 5 19 5 20.921875 5.8984375 C25.78016322 9.82243953 25.78016322 9.82243953 26.44921875 13.40625 C26.43859424 15.64448061 26.31016723 17.78451979 26 20 C24.35 20.33 22.7 20.66 21 21 C20.67 20.34 20.34 19.68 20 19 C18.906875 18.855625 17.81375 18.71125 16.6875 18.5625 C13.05389072 18.00822062 11.64048966 17.42925049 9 15 C8.01 17.64 7.02 20.28 6 23 C4.68 23 3.36 23 2 23 C1.90912109 21.93458984 1.90912109 21.93458984 1.81640625 20.84765625 C1.73261719 19.92855469 1.64882813 19.00945312 1.5625 18.0625 C1.48128906 17.14597656 1.40007813 16.22945312 1.31640625 15.28515625 C1.23955024 13.03840268 1.23955024 13.03840268 0 12 C-0.07244053 9.98035801 -0.08377188 7.95832876 -0.0625 5.9375 C-0.05347656 4.83277344 -0.04445312 3.72804688 -0.03515625 2.58984375 C-0.02355469 1.73519531 -0.01195312 0.88054688 0 0 Z " fill="#A78180" transform="translate(38,63)"/>
<path d="M0 0 C0.85722656 0.09925781 1.71445313 0.19851562 2.59765625 0.30078125 C4.9375 0.6875 4.9375 0.6875 7.9375 1.6875 C7.9375 3.3375 7.9375 4.9875 7.9375 6.6875 C8.5975 6.6875 9.2575 6.6875 9.9375 6.6875 C9.6075 9.3275 9.2775 11.9675 8.9375 14.6875 C1.6775 14.3575 -5.5825 14.0275 -13.0625 13.6875 C-13.0625 16.6575 -13.0625 19.6275 -13.0625 22.6875 C-14.3825 23.0175 -15.7025 23.3475 -17.0625 23.6875 C-18.49636454 19.38590639 -16.98685241 16.66136596 -15.0625 12.6875 C-13.74383728 11.009202 -12.41169532 9.34135233 -11.0625 7.6875 C-10.7325 6.635625 -10.4025 5.58375 -10.0625 4.5 C-9.0625 1.6875 -9.0625 1.6875 -7.31640625 0.4921875 C-4.61658608 -0.47169977 -2.8336193 -0.35473665 0 0 Z " fill="#E55B14" transform="translate(67.0625,46.3125)"/>
<path d="M0 0 C0.66 0.66 1.32 1.32 2 2 C-0.67719967 7.73685644 -0.67719967 7.73685644 -2.54296875 9.2578125 C-5.38234484 12.65288418 -4.95255697 17.58362192 -5.375 21.84765625 C-5.684375 23.40806641 -5.684375 23.40806641 -6 25 C-8.90092502 26.93395001 -9.89674737 27.30131941 -13.1875 27.625 C-14.445625 27.74875 -15.70375 27.8725 -17 28 C-17.37125 27.1028125 -17.37125 27.1028125 -17.75 26.1875 C-19.16370012 23.71352479 -20.65055383 22.56629745 -23 21 C-21.52307692 16.32307692 -21.52307692 16.32307692 -18.875 14.6875 C-18.25625 14.460625 -17.6375 14.23375 -17 14 C-16.01 14.99 -15.02 15.98 -14 17 C-12.2354175 13.09271017 -11.39759748 9.28147693 -10.66015625 5.0859375 C-8.89265172 -0.49895846 -5.36418782 -0.48765344 0 0 Z " fill="#9D2809" transform="translate(44,48)"/>
<path d="M0 0 C0.66 0.33 1.32 0.66 2 1 C2 2.65 2 4.3 2 6 C2.5775 6.268125 3.155 6.53625 3.75 6.8125 C6.07363365 8.0388622 8.03824646 9.24843434 10 11 C10 11.99 10 12.98 10 14 C13.63 13.01 17.26 12.02 21 11 C23.0140956 14.0211434 23.26836596 14.80660017 23.4140625 18.23046875 C23.45273437 19.03291016 23.49140625 19.83535156 23.53125 20.66210938 C23.57765625 21.91217773 23.57765625 21.91217773 23.625 23.1875 C23.66367187 24.03248047 23.70234375 24.87746094 23.7421875 25.74804688 C23.83636279 27.83167524 23.91926675 29.91580753 24 32 C21.58203125 31.2265625 21.58203125 31.2265625 19 30 C17.6875 26.375 17.6875 26.375 17 23 C16.34773438 22.93683594 15.69546875 22.87367187 15.0234375 22.80859375 C10.21250856 22.13449604 6.838525 21.50706158 3.5625 17.75 C-2.14732408 9.91521299 -2.14732408 9.91521299 -1.75 4.75 C-1 2 -1 2 0 0 Z " fill="#7B2213" transform="translate(17,62)"/>
<path d="M0 0 C-0.3125 2.375 -0.3125 2.375 -1 5 C-1.99 5.66 -2.98 6.32 -4 7 C-4.433125 8.299375 -4.433125 8.299375 -4.875 9.625 C-6.08024268 13.24072803 -7.76112339 15.92694037 -9.82421875 19.09765625 C-11.18872643 21.30534808 -12.15707797 23.5478632 -13 26 C-16.3 26 -19.6 26 -23 26 C-23.60420315 18.02451839 -23.60420315 18.02451839 -21.921875 15.171875 C-20.66196376 13.7381829 -19.33324466 12.36576282 -18 11 C-17.67 10.01 -17.34 9.02 -17 8 C-12.545 7.505 -12.545 7.505 -8 7 C-7.67 5.68 -7.34 4.36 -7 3 C-4.44549506 0.61579539 -3.5595477 0 0 0 Z " fill="#E5D8D8" transform="translate(62,42)"/>
<path d="M0 0 C1.05192787 -0.00287018 1.05192787 -0.00287018 2.12510681 -0.00579834 C3.60529947 -0.00715767 5.08550416 -0.00347882 6.56567383 0.00488281 C8.83506919 0.01560245 11.10367586 0.0049713 13.37304688 -0.0078125 C14.81119967 -0.00649117 16.24935197 -0.00392934 17.6875 0 C18.99855713 0.00225586 20.30961426 0.00451172 21.66040039 0.00683594 C24.77734375 0.265625 24.77734375 0.265625 26.77734375 2.265625 C26.77734375 3.255625 26.77734375 4.245625 26.77734375 5.265625 C27.73640625 5.4821875 27.73640625 5.4821875 28.71484375 5.703125 C30.77734375 6.265625 30.77734375 6.265625 31.77734375 7.265625 C31.81827312 9.59859933 31.81976098 11.93267725 31.77734375 14.265625 C30.78734375 14.265625 29.79734375 14.265625 28.77734375 14.265625 C28.44734375 14.925625 28.11734375 15.585625 27.77734375 16.265625 C26.78734375 15.605625 25.79734375 14.945625 24.77734375 14.265625 C24.62072266 13.31429688 24.62072266 13.31429688 24.4609375 12.34375 C23.92055725 9.97522058 23.92055725 9.97522058 21.1875 8.5625 C14.37593393 5.4150319 8.36047741 2.81323844 0.77734375 4.265625 C0.12378906 4.59304687 -0.52976562 4.92046875 -1.203125 5.2578125 C-3.5263526 6.41717946 -5.39601149 6.66327399 -7.97265625 6.890625 C-8.771875 6.96539063 -9.57109375 7.04015625 -10.39453125 7.1171875 C-10.9978125 7.16617187 -11.60109375 7.21515625 -12.22265625 7.265625 C-12.22265625 7.925625 -12.22265625 8.585625 -12.22265625 9.265625 C-13.21265625 8.935625 -14.20265625 8.605625 -15.22265625 8.265625 C-10.41309327 2.28616832 -8.0562695 0.01385004 0 0 Z " fill="#204D84" transform="translate(47.22265625,-0.265625)"/>
<path d="M0 0 C0.66 0.33 1.32 0.66 2 1 C2 3.31 2 5.62 2 8 C2.99 8.33 3.98 8.66 5 9 C5 9.66 5 10.32 5 11 C4.34 11 3.68 11 3 11 C2.94600264 12.45792884 2.90720823 13.91642712 2.875 15.375 C2.84019531 16.59316406 2.84019531 16.59316406 2.8046875 17.8359375 C2.78629949 20.21342243 2.78629949 20.21342243 5 22 C5.04384447 23.66608987 5.0396713 25.33380554 5 27 C5.165 27.66 5.33 28.32 5.5 29 C6.09508274 31.38033098 6.067885 33.55614004 6 36 C6.66 36.33 7.32 36.66 8 37 C7.34 38.32 6.68 39.64 6 41 C4.02 40.67 2.04 40.34 0 40 C-0.0825 40.99 -0.165 41.98 -0.25 43 C-0.86308007 47.47456948 -2.81968045 51.09570685 -5 55 C-6.32 55 -7.64 55 -9 55 C-9 53.35 -9 51.7 -9 50 C-8.01 50 -7.02 50 -6 50 C-6.02320312 49.16855469 -6.04640625 48.33710937 -6.0703125 47.48046875 C-6.08835937 46.39378906 -6.10640625 45.30710938 -6.125 44.1875 C-6.14820312 43.10855469 -6.17140625 42.02960937 -6.1953125 40.91796875 C-6 38 -6 38 -4 35 C-2.02 35.33 -0.04 35.66 2 36 C1.93970033 34.08247047 1.85083293 32.16582574 1.75 30.25 C1.70359375 29.18265625 1.6571875 28.1153125 1.609375 27.015625 C0.8888584 23.44999156 -0.33466305 22.36681922 -3 20 C-3 19.34 -3 18.68 -3 18 C-2.01 18 -1.02 18 0 18 C-0.34804687 17.31550781 -0.69609375 16.63101563 -1.0546875 15.92578125 C-2.23007252 12.28791605 -1.80530446 9.92917453 -1.125 6.1875 C-0.92132813 5.02605469 -0.71765625 3.86460938 -0.5078125 2.66796875 C-0.34023437 1.78753906 -0.17265625 0.90710938 0 0 Z " fill="#2374AE" transform="translate(93,20)"/>
<path d="M0 0 C0.33 0 0.66 0 1 0 C1 2.97 1 5.94 1 9 C2.7634375 8.9690625 2.7634375 8.9690625 4.5625 8.9375 C8.47413467 8.93052739 12.14497944 9.35749657 16 10 C16 10.66 16 11.32 16 12 C16.66 12 17.32 12 18 12 C18 13.32 18 14.64 18 16 C14.26512223 15.5020163 12.18762365 15.12508244 9 13 C9 13.66 9 14.32 9 15 C4.02693484 14.50269348 0.36200187 13.44697666 -4 11 C-1.15884533 16.52446742 2.55925531 20.05082151 8.375 22.3125 C9.24125 22.539375 10.1075 22.76625 11 23 C9.68 25.64 8.36 28.28 7 31 C6.01 31 5.02 31 4 31 C4 30.01 4 29.02 4 28 C3.01 28 2.02 28 1 28 C1 26.68 1 25.36 1 24 C-0.98 24.99 -0.98 24.99 -3 26 C-5 24 -5 24 -5.1953125 20.5234375 C-5.18201493 19.14049032 -5.15816232 17.75761346 -5.125 16.375 C-5.11597656 15.66859375 -5.10695313 14.9621875 -5.09765625 14.234375 C-5.07407603 12.48943902 -5.03820461 10.74467705 -5 9 C-4.01 9 -3.02 9 -2 9 C-1.7834375 7.329375 -1.7834375 7.329375 -1.5625 5.625 C-1 2 -1 2 0 0 Z " fill="#256DA2" transform="translate(7,38)"/>
<path d="M0 0 C0 2.31 0 4.62 0 7 C0.66 7 1.32 7 2 7 C2 4.69 2 2.38 2 0 C5 1 5 1 7 4 C7.53916146 6.6602023 7.73370098 9.29262663 8 12 C7.071875 12.350625 6.14375 12.70125 5.1875 13.0625 C1.0142355 15.59919019 0.53814504 17.4710174 -1 22 C-1.66 22 -2.32 22 -3 22 C-3.20625 21.38125 -3.4125 20.7625 -3.625 20.125 C-5.54775888 17.15346355 -7.66594527 16.86975341 -11 16 C-11 15.01 -11 14.02 -11 13 C-9.68 12.34 -8.36 11.68 -7 11 C-8.32 10.34 -9.64 9.68 -11 9 C-10.67 7.35 -10.34 5.7 -10 4 C-8.35 3.67 -6.7 3.34 -5 3 C-5 2.34 -5 1.68 -5 1 C-2 0 -2 0 0 0 Z " fill="#44A8D3" transform="translate(28,18)"/>
<path d="M0 0 C1.03125 0.144375 2.0625 0.28875 3.125 0.4375 C9.39218196 1.2293822 15.69897659 1.58406166 22 2 C21.01 5.63 20.02 9.26 19 13 C10.06631071 14.5694319 10.06631071 14.5694319 7.10546875 12.98828125 C5.67568715 11.72500587 4.33274878 10.36525485 3 9 C2.01 8.67 1.02 8.34 0 8 C0 5.36 0 2.72 0 0 Z " fill="#21222E" transform="translate(54,60)"/>
<path d="M0 0 C3.65316671 1.24976756 4.78065836 1.67098753 7 5 C7 6.32 7 7.64 7 9 C5.02 9 3.04 9 1 9 C2.3089572 12.12197478 2.3089572 12.12197478 5 14 C4.4375 15.875 4.4375 15.875 3 18 C0.67793475 18.70491267 -1.65593068 19.37212429 -4 20 C-4.66 20.99 -5.32 21.98 -6 23 C-7.5625 21.25 -7.5625 21.25 -9 19 C-8.6875 16.75 -8.6875 16.75 -8 15 C-7.34 15 -6.68 15 -6 15 C-6.226875 14.2575 -6.45375 13.515 -6.6875 12.75 C-7 10 -7 10 -5.6875 7.6875 C-5.130625 7.130625 -4.57375 6.57375 -4 6 C-3.34 6 -2.68 6 -2 6 C-1.34 4.02 -0.68 2.04 0 0 Z " fill="#F7C8A8" transform="translate(54,14)"/>
<path d="M0 0 C3.37462715 0.54723683 5.08235 1.0549 8 3 C9.65549531 3.38499891 11.3222433 3.72793135 13 4 C13 3.34 13 2.68 13 2 C20.4559194 4.82115869 20.4559194 4.82115869 22.5 9.25 C23 13 23 13 22.078125 14.79296875 C20.75 16.4375 20.75 16.4375 18 19 C17.34 19 16.68 19 16 19 C15.67 16.69 15.34 14.38 15 12 C14.01 11.814375 13.02 11.62875 12 11.4375 C7.09932956 10.05448871 3.28256404 6.82823702 0 3 C0 2.01 0 1.02 0 0 Z " fill="#EEC0A3" transform="translate(3,49)"/>
<path d="M0 0 C2.875 0.6875 2.875 0.6875 6 2 C7.375 4.625 7.375 4.625 8 7 C8.99 7 9.98 7 11 7 C13.33333333 7 15.66666667 7 18 7 C18 8.32 18 9.64 18 11 C20.64 11 23.28 11 26 11 C26 11.33 26 11.66 26 12 C19.565 12.495 19.565 12.495 13 13 C12.67 14.65 12.34 16.3 12 18 C11.21625 18.0825 10.4325 18.165 9.625 18.25 C6.85250896 18.72806339 6.85250896 18.72806339 5.6875 21.0625 C5.460625 21.701875 5.23375 22.34125 5 23 C4.34 23 3.68 23 3 23 C1.64560332 20.29120665 1.93498549 17.99066732 2 15 C3.32 14.67 4.64 14.34 6 14 C5.81314911 10.60465748 5.81314911 10.60465748 5 7 C3.05990478 5.29467677 3.05990478 5.29467677 1 4 C0.25 1.8125 0.25 1.8125 0 0 Z " fill="#4C8DB8" transform="translate(65,7)"/>
<path d="M0 0 C2 2 2 2 2 6 C2.99 5.34 3.98 4.68 5 4 C6.32 4 7.64 4 9 4 C9 5.98 9 7.96 9 10 C7.35 10.66 5.7 11.32 4 12 C4.09539062 12.60328125 4.19078125 13.2065625 4.2890625 13.828125 C4.39992188 14.62734375 4.51078125 15.4265625 4.625 16.25 C4.74101563 17.03890625 4.85703125 17.8278125 4.9765625 18.640625 C5.00319395 21.32152459 4.36592084 22.72694089 3 25 C2.89945313 24.24074219 2.79890625 23.48148438 2.6953125 22.69921875 C2.09187373 19.51256608 1.4605372 16.903942 0 14 C-3.21356751 12.14741197 -6.34187639 11.47356572 -10 11 C-10 10.01 -10 9.02 -10 8 C-9.44570312 7.84144531 -8.89140625 7.68289062 -8.3203125 7.51953125 C-3.52015703 6.09623213 -3.52015703 6.09623213 -0.5 2.3125 C-0.335 1.549375 -0.17 0.78625 0 0 Z " fill="#79D5EE" transform="translate(78,36)"/>
<path d="M0 0 C1.66611905 -0.042721 3.33382885 -0.04063832 5 0 C6 1 6 1 6.11352539 4.32641602 C6.11336629 5.80225556 6.10767314 7.27810069 6.09765625 8.75390625 C6.0962413 9.52935287 6.09482635 10.3047995 6.09336853 11.10374451 C6.08775345 13.59003494 6.07519846 16.0762366 6.0625 18.5625 C6.05748694 20.24413933 6.0529237 21.92578006 6.04882812 23.60742188 C6.03777913 27.73831566 6.02050445 31.86914276 6 36 C5.34 36 4.68 36 4 36 C3.875 28.25 3.875 28.25 5 26 C4.01 25.67 3.02 25.34 2 25 C2.03255208 22.94921875 2.06510417 20.8984375 2.09765625 18.84765625 C2.20561184 16.98267859 2.20561184 16.98267859 1 16 C1.020625 15.195625 1.04125 14.39125 1.0625 13.5625 C1.29058908 10.83081897 1.29058908 10.83081897 -1 9 C-1.33870968 2.67741935 -1.33870968 2.67741935 0 0 Z " fill="#1B5D96" transform="translate(96,31)"/>
<path d="M0 0 C1.8984375 0.50390625 1.8984375 0.50390625 4 2 C4.73914139 4.71708374 5.24537388 7.17060965 5.625 9.9375 C6.42507295 15.75772594 6.42507295 15.75772594 9 21 C9.125 24.1875 9.125 24.1875 9 27 C2.4362069 24.56896552 2.4362069 24.56896552 0.5625 22.125 C-0.08390337 19.68303172 -0.03737368 17.51649478 0 15 C-1.35544922 14.92652344 -1.35544922 14.92652344 -2.73828125 14.8515625 C-3.91777344 14.77679688 -5.09726563 14.70203125 -6.3125 14.625 C-7.48425781 14.55539063 -8.65601562 14.48578125 -9.86328125 14.4140625 C-13 14 -13 14 -16 12 C-10.22240116 11.87963336 -4.72040011 12.1679418 1 13 C1.33 10.36 1.66 7.72 2 5 C1.34 5 0.68 5 0 5 C0 3.35 0 1.7 0 0 Z " fill="#944332" transform="translate(75,48)"/>
<path d="M0 0 C1.32 0.99 2.64 1.98 4 3 C3.67 3.66 3.34 4.32 3 5 C2.960008 6.99960012 2.95653201 9.00047242 3 11 C3.969375 11.28875 4.93875 11.5775 5.9375 11.875 C9 13 9 13 10 15 C12.52733235 15.65555119 12.52733235 15.65555119 15 16 C15 16.66 15 17.32 15 18 C11.40537669 20.25998595 8.43404325 20.20868087 4.25 20.125 C3.07953125 20.10695313 1.9090625 20.08890625 0.703125 20.0703125 C-0.18890625 20.04710938 -1.0809375 20.02390625 -2 20 C-2.3690205 6.3667426 -2.3690205 6.3667426 0 0 Z " fill="#6F2B29" transform="translate(46,77)"/>
<path d="M0 0 C0.66 0 1.32 0 2 0 C2.33 1.98 2.66 3.96 3 6 C2.01 6.495 2.01 6.495 1 7 C1 9.64 1 12.28 1 15 C3.51083114 13.74458443 3.87125446 12.49936512 5 10 C8.47010942 13.13869448 9.85293317 16.51680752 11 21 C10.9375 23.875 10.9375 23.875 10 26 C7.9375 27.3125 7.9375 27.3125 6 28 C5 27 5 27 4.90234375 24.71484375 C4.91394531 23.79832031 4.92554687 22.88179687 4.9375 21.9375 C4.94652344 21.01839844 4.95554687 20.09929688 4.96484375 19.15234375 C4.97644531 18.44207031 4.98804687 17.73179688 5 17 C2.03 17.33 -0.94 17.66 -4 18 C-3.65226572 11.36906706 -3.03910346 5.946072 0 0 Z " fill="#43373E" transform="translate(67,15)"/>
<path d="M0 0 C0.66 0.66 1.32 1.32 2 2 C0.32097858 5.59790303 -1.21835016 8.21835016 -4 11 C-5.19027984 13.59915538 -5.19027984 13.59915538 -6 16 C-8.31 16.33 -10.62 16.66 -13 17 C-12.67702486 15.33129513 -12.33986667 13.66534667 -12 12 C-11.79890625 10.89591797 -11.79890625 10.89591797 -11.59375 9.76953125 C-11.36171875 8.58423828 -11.36171875 8.58423828 -11.125 7.375 C-10.98320313 6.61960937 -10.84140625 5.86421875 -10.6953125 5.0859375 C-8.84203658 -0.47389025 -5.4051301 -0.49137546 0 0 Z " fill="#ED782A" transform="translate(44,48)"/>
<path d="M0 0 C0.33 0 0.66 0 1 0 C1 1.65 1 3.3 1 5 C4.3 5 7.6 5 11 5 C10.35702496 7.62573061 9.71075589 10.25057303 9.0625 12.875 C8.88009766 13.62136719 8.69769531 14.36773437 8.50976562 15.13671875 C7.11328125 20.7734375 7.11328125 20.7734375 6 23 C4.68 23 3.36 23 2 23 C1.90912109 21.93458984 1.90912109 21.93458984 1.81640625 20.84765625 C1.73261719 19.92855469 1.64882813 19.00945312 1.5625 18.0625 C1.48128906 17.14597656 1.40007813 16.22945312 1.31640625 15.28515625 C1.23955024 13.03840268 1.23955024 13.03840268 0 12 C-0.07244053 9.98035801 -0.08377188 7.95832876 -0.0625 5.9375 C-0.05347656 4.83277344 -0.04445312 3.72804688 -0.03515625 2.58984375 C-0.02355469 1.73519531 -0.01195312 0.88054688 0 0 Z " fill="#8693B6" transform="translate(38,63)"/>
<path d="M0 0 C11.52164009 0.96355353 11.52164009 0.96355353 17 2 C17.33 2.99 17.66 3.98 18 5 C17 7 17 7 14.453125 7.8515625 C13.39609375 8.10679688 12.3390625 8.36203125 11.25 8.625 C10.20328125 8.88539062 9.1565625 9.14578125 8.078125 9.4140625 C5 10 5 10 0 10 C0 6.7 0 3.4 0 0 Z " fill="#AA2D0B" transform="translate(64,73)"/>
<path d="M0 0 C1.32 0.66 2.64 1.32 4 2 C4 2.99 4 3.98 4 5 C4.9590625 5.2165625 4.9590625 5.2165625 5.9375 5.4375 C8 6 8 6 9 7 C9.04092937 9.33297433 9.04241723 11.66705225 9 14 C8.01 14 7.02 14 6 14 C5.67 14.66 5.34 15.32 5 16 C4.01 15.34 3.02 14.68 2 14 C1.87625 13.0409375 1.87625 13.0409375 1.75 12.0625 C1.10223031 9.53957824 1.10223031 9.53957824 -2.5625 8.25 C-3.696875 7.8375 -4.83125 7.425 -6 7 C-6 6.34 -6 5.68 -6 5 C-5.34 5 -4.68 5 -4 5 C-3.67 4.01 -3.34 3.02 -3 2 C-2.01 1.34 -1.02 0.68 0 0 Z " fill="#25609B" transform="translate(70,0)"/>
<path d="M0 0 C-0.3125 2.375 -0.3125 2.375 -1 5 C-1.99 5.66 -2.98 6.32 -4 7 C-4.72965366 9.56282742 -4.72965366 9.56282742 -5 12 C-5.886875 12.2475 -6.77375 12.495 -7.6875 12.75 C-11.10427135 14.03934768 -13.2797748 15.59980129 -16 18 C-18.125 11.375 -18.125 11.375 -17 8 C-12.545 7.505 -12.545 7.505 -8 7 C-7.67 5.68 -7.34 4.36 -7 3 C-4.44549506 0.61579539 -3.5595477 0 0 0 Z " fill="#F7C9A9" transform="translate(62,42)"/>
<path d="M0 0 C2.97 0.495 2.97 0.495 6 1 C6 2.32 6 3.64 6 5 C5.34 5 4.68 5 4 5 C3.9175 5.99 3.835 6.98 3.75 8 C3.13691993 12.47456948 1.18031955 16.09570685 -1 20 C-2.32 20 -3.64 20 -5 20 C-5 18.35 -5 16.7 -5 15 C-4.01 15 -3.02 15 -2 15 C-2.02320312 14.16855469 -2.04640625 13.33710937 -2.0703125 12.48046875 C-2.08835937 11.39378906 -2.10640625 10.30710937 -2.125 9.1875 C-2.14820312 8.10855469 -2.17140625 7.02960937 -2.1953125 5.91796875 C-2 3 -2 3 0 0 Z " fill="#3391BF" transform="translate(89,55)"/>
<path d="M0 0 C2.31 0 4.62 0 7 0 C7 1.32 7 2.64 7 4 C5.68 4 4.36 4 3 4 C3.2475 4.5775 3.495 5.155 3.75 5.75 C4 8 4 8 2.3125 10.25 C0 12 0 12 -4 12 C-4 14.97 -4 17.94 -4 21 C-5.32 21.33 -6.64 21.66 -8 22 C-9.43386454 17.69840639 -7.92435241 14.97386596 -6 11 C-4.68133728 9.321702 -3.34919532 7.65385233 -2 6 C-0.74443113 2.82078213 -0.74443113 2.82078213 0 0 Z " fill="#F47015" transform="translate(58,48)"/>
<path d="M0 0 C4.44870215 -0.39253254 7.14243493 0.84694043 11 3 C11 3.66 11 4.32 11 5 C12.32 4.67 13.64 4.34 15 4 C14.67 6.97 14.34 9.94 14 13 C11.03 12.505 11.03 12.505 8 12 C7.67 10.68 7.34 9.36 7 8 C5.35 8 3.7 8 2 8 C1.34 5.36 0.68 2.72 0 0 Z " fill="#3385B4" transform="translate(18,83)"/>
<path d="M0 0 C0.33 0 0.66 0 1 0 C1 3.96 1 7.92 1 12 C-0.98 12 -2.96 12 -5 12 C-6.35091528 14.70183055 -6.33858058 17.11808206 -6.5625 20.125 C-6.64628906 21.22070312 -6.73007813 22.31640625 -6.81640625 23.4453125 C-6.87699219 24.28835937 -6.93757813 25.13140625 -7 26 C-8.875 25.6875 -8.875 25.6875 -11 25 C-13.1519437 21.77208445 -13.20086443 20.71599191 -13 17 C-12.34 17 -11.68 17 -11 17 C-11 16.113125 -11 15.22625 -11 14.3125 C-9.67650228 9.92841379 -7.73063513 9.41613146 -3.87890625 7.30078125 C-1.1184044 5.38966458 -0.59699083 3.20882573 0 0 Z " fill="#48AED6" transform="translate(94,44)"/>
<path d="M0 0 C0.99 0.33 1.98 0.66 3 1 C3 1.99 3 2.98 3 4 C3.66 4.33 4.32 4.66 5 5 C5 5.66 5 6.32 5 7 C7.31 7.33 9.62 7.66 12 8 C10.5682479 13.01113235 8.01554307 14.94469549 4 18 C3.34 17.34 2.68 16.68 2 16 C3.32 14.02 4.64 12.04 6 10 C0.71800407 8.80011955 0.71800407 8.80011955 -4 11 C-4.56638908 6.18569279 -2.82561627 3.79692186 0 0 Z " fill="#944F38" transform="translate(42,7)"/>
<path d="M0 0 C0.66 0 1.32 0 2 0 C4.0140956 3.0211434 4.26836596 3.80660017 4.4140625 7.23046875 C4.45273437 8.03291016 4.49140625 8.83535156 4.53125 9.66210938 C4.5621875 10.49548828 4.593125 11.32886719 4.625 12.1875 C4.66367187 13.03248047 4.70234375 13.87746094 4.7421875 14.74804688 C4.83636279 16.83167524 4.91926675 18.91580753 5 21 C2.58203125 20.1875 2.58203125 20.1875 0 19 C-2.33769104 13.65670619 -2.71877215 7.78188773 -2 2 C-1.34 1.34 -0.68 0.68 0 0 Z " fill="#852D1F" transform="translate(36,73)"/>
<path d="M0 0 C2.97 0.33 5.94 0.66 9 1 C9.185625 1.78375 9.37125 2.5675 9.5625 3.375 C10.83961627 6.39376342 10.83961627 6.39376342 14.625 7.3125 C15.73875 7.539375 16.8525 7.76625 18 8 C18 8.33 18 8.66 18 9 C15.02077407 9.02683987 12.04178705 9.04676037 9.0625 9.0625 C7.78729492 9.07506836 7.78729492 9.07506836 6.48632812 9.08789062 C5.67744141 9.09111328 4.86855469 9.09433594 4.03515625 9.09765625 C3.2862915 9.10289307 2.53742676 9.10812988 1.76586914 9.11352539 C0 9 0 9 -1 8 C-1.23529412 2.47058824 -1.23529412 2.47058824 0 0 Z " fill="#1B1B27" transform="translate(49,80)"/>
<path d="M0 0 C0.33 0 0.66 0 1 0 C1 1.65 1 3.3 1 5 C2.98 4.67 4.96 4.34 7 4 C7.375 6.1875 7.375 6.1875 7 9 C3.98059086 12.01940914 1.35877078 14.49706491 -3 15 C-3.33 16.98 -3.66 18.96 -4 21 C-4.8723412 18.00519083 -5.10829766 15.36424089 -5.0625 12.25 C-5.05347656 11.45078125 -5.04445313 10.6515625 -5.03515625 9.828125 C-5.02355469 9.22484375 -5.01195313 8.6215625 -5 8 C-4.35546875 7.73445313 -3.7109375 7.46890625 -3.046875 7.1953125 C-2.37140625 6.80085938 -1.6959375 6.40640625 -1 6 C-0.18415432 2.94091587 -0.18415432 2.94091587 0 0 Z " fill="#51C2E9" transform="translate(87,40)"/>
<path d="M0 0 C0 2.31 0 4.62 0 7 C0.66 7 1.32 7 2 7 C2 4.69 2 2.38 2 0 C2.33 0 2.66 0 3 0 C3.125 7.75 3.125 7.75 2 10 C-1.96 10 -5.92 10 -10 10 C-10.33 8.68 -10.66 7.36 -11 6 C-9.75 4.25 -9.75 4.25 -8 3 C-7.01 3 -6.02 3 -5 3 C-5 2.34 -5 1.68 -5 1 C-2 0 -2 0 0 0 Z " fill="#78CEEC" transform="translate(28,18)"/>
<path d="M0 0 C0 0.66 0 1.32 0 2 C-0.639375 2.28875 -1.27875 2.5775 -1.9375 2.875 C-4.15206079 3.82823451 -4.15206079 3.82823451 -5 6 C-5.99 6 -6.98 6 -8 6 C-8.33 7.65 -8.66 9.3 -9 11 C-14.94 11 -20.88 11 -27 11 C-23 9 -23 9 -20 9 C-19.67 8.01 -19.34 7.02 -19 6 C-14.25 6.875 -14.25 6.875 -12 8 C-11.5875 7.05125 -11.175 6.1025 -10.75 5.125 C-7.99106306 0.19832689 -5.46454465 -0.30358581 0 0 Z " fill="#2B74AD" transform="translate(44,5)"/>
<path d="M0 0 C6.09781001 -0.22084624 11.21642935 -0.01167675 17 2 C17 2.66 17 3.32 17 4 C15.35 4 13.7 4 12 4 C11.67 5.32 11.34 6.64 11 8 C8.69 8 6.38 8 4 8 C4 7.34 4 6.68 4 6 C3.01 5.67 2.02 5.34 1 5 C1 4.34 1 3.68 1 3 C0.34 3 -0.32 3 -1 3 C-0.67 2.01 -0.34 1.02 0 0 Z " fill="#391915" transform="translate(48,5)"/>
<path d="M0 0 C0.90238747 2.70716242 1.11851302 4.23776768 1.09765625 7.01171875 C1.09443359 7.76904297 1.09121094 8.52636719 1.08789062 9.30664062 C1.07951172 10.09232422 1.07113281 10.87800781 1.0625 11.6875 C1.05798828 12.48478516 1.05347656 13.28207031 1.04882812 14.10351562 C1.0370585 16.06904257 1.01912348 18.03453085 1 20 C0.34 20 -0.32 20 -1 20 C-0.34 22.64 0.32 25.28 1 28 C0.01 28 -0.98 28 -2 28 C-3 27 -3 27 -3.0625 23.4375 C-3.041875 22.303125 -3.02125 21.16875 -3 20 C-4.98 20.33 -6.96 20.66 -9 21 C-8.3125 19.1875 -8.3125 19.1875 -7 17 C-6.13375 16.62875 -5.2675 16.2575 -4.375 15.875 C-3.199375 14.946875 -3.199375 14.946875 -2 14 C-1.71250965 11.43027858 -1.81362732 9.04839789 -2.01953125 6.47265625 C-1.99801986 3.74931469 -1.38774736 2.3093402 0 0 Z " fill="#A8B8B5" transform="translate(37,15)"/>
<path d="M0 0 C3.125 1 3.125 1 5 2 C5 2.33 5 2.66 5 3 C0.05 3 -4.9 3 -10 3 C-10.33 3.66 -10.66 4.32 -11 5 C-10.34 5 -9.68 5 -9 5 C-7.375 6.375 -7.375 6.375 -6 8 C-6 8.66 -6 9.32 -6 10 C-3.69 10 -1.38 10 1 10 C1.33 8.68 1.66 7.36 2 6 C1.67 8.31 1.34 10.62 1 13 C-4.94 12.01 -4.94 12.01 -11 11 C-11 10.34 -11 9.68 -11 9 C-11.99 8.67 -12.98 8.34 -14 8 C-14.25 5.6875 -14.25 5.6875 -14 3 C-9.81747249 -1.03896249 -5.48622792 -0.54064605 0 0 Z " fill="#582D2C" transform="translate(58,3)"/>
<path d="M0 0 C4.16138263 -0.08159574 7.9472484 0.01751476 12 1 C12.33 2.65 12.66 4.3 13 6 C12.01 6 11.02 6 10 6 C10 6.66 10 7.32 10 8 C7.36 8.33 4.72 8.66 2 9 C0.50178941 5.62902617 0 3.79557881 0 0 Z " fill="#2B78AF" transform="translate(68,88)"/>
<path d="M0 0 C2.31332486 3.46998729 2.33957563 4.92509248 2 9 C1.01 10.485 1.01 10.485 0 12 C-1.87939453 12.34057617 -1.87939453 12.34057617 -4.1328125 12.29296875 C-4.93847656 12.28330078 -5.74414062 12.27363281 -6.57421875 12.26367188 C-7.41597656 12.23853516 -8.25773437 12.21339844 -9.125 12.1875 C-9.97449219 12.17396484 -10.82398437 12.16042969 -11.69921875 12.14648438 C-13.79974837 12.11108219 -15.89995293 12.05727401 -18 12 C-16.68 11.67 -15.36 11.34 -14 11 C-14 10.34 -14 9.68 -14 9 C-4.58997722 5.55580866 -4.58997722 5.55580866 0 6 C0 4.02 0 2.04 0 0 Z " fill="#562D36" transform="translate(85,76)"/>
<path d="M0 0 C0.66 1.65 1.32 3.3 2 5 C1.01 5 0.02 5 -1 5 C-1 5.66 -1 6.32 -1 7 C0.32 7.66 1.64 8.32 3 9 C3 9.66 3 10.32 3 11 C1.02 11.33 -0.96 11.66 -3 12 C-3 10.35 -3 8.7 -3 7 C-4.98 7 -6.96 7 -9 7 C-9 5.02 -9 3.04 -9 1 C-6.04335481 -0.4783226 -3.25770263 -0.06032783 0 0 Z " fill="#3DA1D1" transform="translate(91,33)"/>
<path d="M0 0 C5.15171623 -0.09038099 9.91913204 0.15318867 15 1 C15 1.66 15 2.32 15 3 C15.66 3 16.32 3 17 3 C17 4.32 17 5.64 17 7 C13.26512223 6.5020163 11.18762365 6.12508244 8 4 C8 4.66 8 5.32 8 6 C1.47692308 5.38461538 1.47692308 5.38461538 -0.9375 3.4375 C-1.288125 2.963125 -1.63875 2.48875 -2 2 C-1.34 2 -0.68 2 0 2 C0 1.34 0 0.68 0 0 Z " fill="#55B5D6" transform="translate(8,47)"/>
<path d="M0 0 C0.66 0.33 1.32 0.66 2 1 C2 4.63 2 8.26 2 12 C0.35 12.33 -1.3 12.66 -3 13 C-3 13.66 -3 14.32 -3 15 C-5.31 15.33 -7.62 15.66 -10 16 C-9.34 14.35 -8.68 12.7 -8 11 C-7.01 11 -6.02 11 -5 11 C-5 9.68 -5 8.36 -5 7 C-3.83554954 4.04408729 -2.34191563 2.1290142 0 0 Z " fill="#452E2D" transform="translate(71,31)"/>
<path d="M0 0 C1.65 0 3.3 0 5 0 C4.690625 1.0725 4.38125 2.145 4.0625 3.25 C3.33376508 5.82200559 2.64835844 8.40656624 2 11 C-1.3 11 -4.6 11 -8 11 C-7.01 9.68 -6.02 8.36 -5 7 C-5 5.68 -5 4.36 -5 3 C-3.35 3 -1.7 3 0 3 C0 2.01 0 1.02 0 0 Z " fill="#EF620B" transform="translate(66,49)"/>
<path d="M0 0 C2.25 1.75 2.25 1.75 4 4 C4 5.65 4 7.3 4 9 C0.7 8.34 -2.6 7.68 -6 7 C-6.33 5.35 -6.66 3.7 -7 2 C-7.66 2 -8.32 2 -9 2 C-8 0 -8 0 -6.1875 -0.6875 C-3.67243312 -1.04679527 -2.3558843 -0.957078 0 0 Z " fill="#EFC1A0" transform="translate(58,69)"/>
<path d="M0 0 C3.63 0 7.26 0 11 0 C11 2.31 11 4.62 11 7 C7.37 7 3.74 7 0 7 C0 4.69 0 2.38 0 0 Z " fill="#B1E9F4" transform="translate(11,38)"/>
<path d="M0 0 C2.97 0.33 5.94 0.66 9 1 C9.61875 2.918125 9.61875 2.918125 10.25 4.875 C11.46720276 8.23626037 11.46720276 8.23626037 14.1875 10.5 C14.785625 10.665 15.38375 10.83 16 11 C16 12.32 16 13.64 16 15 C13.69 14.67 11.38 14.34 9 14 C8.67 11.03 8.34 8.06 8 5 C6.68 5 5.36 5 4 5 C4 4.34 4 3.68 4 3 C2.68 2.34 1.36 1.68 0 1 C0 0.67 0 0.34 0 0 Z " fill="#583041" transform="translate(25,83)"/>
<path d="M0 0 C1.32 0.99 2.64 1.98 4 3 C5.98014432 3.72351427 7.97821315 4.40265389 10 5 C8.68 7.64 7.36 10.28 6 13 C5.01 13 4.02 13 3 13 C3 12.01 3 11.02 3 10 C2.01 10 1.02 10 0 10 C0 6.7 0 3.4 0 0 Z " fill="#3188B6" transform="translate(8,56)"/>
<path d="M0 0 C1.65 0.33 3.3 0.66 5 1 C4.60791281 6.35852494 2.6642613 10.14168125 -1 14 C-1.66 14 -2.32 14 -3 14 C-3.29341888 8.32723489 -3.00559652 5.00932754 0 0 Z " fill="#184D8C" transform="translate(3,27)"/>
<path d="M0 0 C1.32 0.66 2.64 1.32 4 2 C2.32097858 5.59790303 0.78164984 8.21835016 -2 11 C-3.19027984 13.59915538 -3.19027984 13.59915538 -4 16 C-7 14 -7 14 -7.6875 11.375 C-7.790625 10.59125 -7.89375 9.8075 -8 9 C-7.01 8.67 -6.02 8.34 -5 8 C-5 7.34 -5 6.68 -5 6 C-3.35 5.34 -1.7 4.68 0 4 C-0.33 3.01 -0.66 2.02 -1 1 C-0.67 0.67 -0.34 0.34 0 0 Z " fill="#E96517" transform="translate(42,48)"/>
<path d="M0 0 C1.95457322 2.93185982 2.30597139 4.16025092 2.8125 7.5 C3.55654661 11.3721542 3.55654661 11.3721542 6.625 13.9375 C7.40875 14.288125 8.1925 14.63875 9 15 C9 15.66 9 16.32 9 17 C5.75 17.375 5.75 17.375 2 17 C-0.68540959 14.03916379 -1.90209888 12.12586284 -2.25 8.125 C-2.1675 7.42375 -2.085 6.7225 -2 6 C-1.34 6 -0.68 6 0 6 C0 4.02 0 2.04 0 0 Z " fill="#62372D" transform="translate(38,29)"/>
<path d="M0 0 C1.32 0.99 2.64 1.98 4 3 C3.67 3.66 3.34 4.32 3 5 C2.960008 6.99960012 2.95653201 9.00047242 3 11 C3.969375 11.268125 4.93875 11.53625 5.9375 11.8125 C6.948125 12.204375 7.95875 12.59625 9 13 C9.33 13.99 9.66 14.98 10 16 C8.02 16 6.04 16 4 16 C4 15.34 4 14.68 4 14 C2.35 14.33 0.7 14.66 -1 15 C-1.02703381 13.06257659 -1.04641125 11.12504521 -1.0625 9.1875 C-1.07410156 8.10855469 -1.08570313 7.02960938 -1.09765625 5.91796875 C-1 3 -1 3 0 0 Z " fill="#722418" transform="translate(46,77)"/>
<path d="M0 0 C1 3 1 3 -0.21484375 5.48046875 C-0.78332031 6.37378906 -1.35179687 7.26710938 -1.9375 8.1875 C-2.50339844 9.08855469 -3.06929687 9.98960938 -3.65234375 10.91796875 C-4.31943359 11.94857422 -4.31943359 11.94857422 -5 13 C-7.31 12.67 -9.62 12.34 -12 12 C-12.33 11.01 -12.66 10.02 -13 9 C-11.63875 8.38125 -11.63875 8.38125 -10.25 7.75 C-6.98104302 6.19056752 -6.98104302 6.19056752 -4.8125 3.8125 C-4.214375 3.214375 -3.61625 2.61625 -3 2 C-2.01 2 -1.02 2 0 2 C0 1.34 0 0.68 0 0 Z " fill="#F0E6E4" transform="translate(55,52)"/>
<path d="M0 0 C0.66 0 1.32 0 2 0 C2.33 2.31 2.66 4.62 3 7 C7.29 7 11.58 7 16 7 C16 7.33 16 7.66 16 8 C11.545 8.495 11.545 8.495 7 9 C7.33 11.31 7.66 13.62 8 16 C7.01 16.33 6.02 16.66 5 17 C4.67 15.02 4.34 13.04 4 11 C3.34 11 2.68 11 2 11 C1.01 7.7 0.02 4.4 -1 1 C-0.67 0.67 -0.34 0.34 0 0 Z " fill="#71C6E4" transform="translate(75,25)"/>
<path d="M0 0 C-0.33 0.99 -0.66 1.98 -1 3 C-4.5625 4.1875 -4.5625 4.1875 -8 5 C-8.12375 5.7425 -8.2475 6.485 -8.375 7.25 C-8.95486701 9.80141485 -9.73708739 11.7267573 -11 14 C-11.99 14 -12.98 14 -14 14 C-13.90125535 9.16151219 -13.14102099 6.65495658 -9.8125 3.0625 C-6.58495112 0.07501674 -4.47875211 -0.76466499 0 0 Z " fill="#1D5798" transform="translate(22,12)"/>
<path d="M0 0 C0.66 0 1.32 0 2 0 C4.56616632 3.84924948 4.55097676 6.4349304 5 11 C2.33333333 12.33333333 -0.33333333 13.66666667 -3 15 C-3 13.35 -3 11.7 -3 10 C-3.99 9.67 -4.98 9.34 -6 9 C-4.35 9 -2.7 9 -1 9 C-0.67 6.03 -0.34 3.06 0 0 Z " fill="#56B1D5" transform="translate(31,19)"/>
<path d="M0 0 C2.12534659 0.14069196 4.25027529 0.28770921 6.375 0.4375 C8.15003906 0.55931641 8.15003906 0.55931641 9.9609375 0.68359375 C13 1 13 1 15 2 C14.67 2.66 14.34 3.32 14 4 C10.37 3.67 6.74 3.34 3 3 C3 5.31 3 7.62 3 10 C6.3 10 9.6 10 13 10 C13 10.33 13 10.66 13 11 C9.04 11 5.08 11 1 11 C0.67 7.37 0.34 3.74 0 0 Z " fill="#4AAAD6" transform="translate(8,35)"/>
<path d="M0 0 C0.66 0 1.32 0 2 0 C2.33 1.98 2.66 3.96 3 6 C2.01 6.495 2.01 6.495 1 7 C1 9.64 1 12.28 1 15 C1.66 15.33 2.32 15.66 3 16 C0 18 0 18 -2.1875 17.625 C-3.0846875 17.315625 -3.0846875 17.315625 -4 17 C-3.63223832 10.69732561 -2.83374078 5.66748157 0 0 Z " fill="#326492" transform="translate(67,15)"/>
<path d="M0 0 C0.66 0 1.32 0 2 0 C-0.54652333 6.23830847 -7.11219336 9.3127251 -13.0625 11.875 C-14.5165625 12.431875 -14.5165625 12.431875 -16 13 C-16.38218767 11.34385343 -16.71395102 9.67542976 -17 8 C-16 7 -16 7 -12.4375 6.9375 C-11.303125 6.958125 -10.16875 6.97875 -9 7 C-9 6.34 -9 5.68 -9 5 C-8.071875 4.731875 -7.14375 4.46375 -6.1875 4.1875 C-3.1688359 3.06289965 -2.0844857 2.29293427 0 0 Z " fill="#1F5A95" transform="translate(87,89)"/>
<path d="M0 0 C0.99 0.33 1.98 0.66 3 1 C2.67 3.64 2.34 6.28 2 9 C-0.64 9 -3.28 9 -6 9 C-6 7.35 -6 5.7 -6 4 C-4.7934375 3.566875 -4.7934375 3.566875 -3.5625 3.125 C-0.8673532 2.26737432 -0.8673532 2.26737432 0 0 Z " fill="#CE4511" transform="translate(74,52)"/>
<path d="M0 0 C0.66 0.33 1.32 0.66 2 1 C2 1.66 2 2.32 2 3 C3.65 3 5.3 3 7 3 C7 3.99 7 4.98 7 6 C5.68 6 4.36 6 3 6 C3.33 7.32 3.66 8.64 4 10 C1.36 10 -1.28 10 -4 10 C-3.67 9.01 -3.34 8.02 -3 7 C-2.34 7 -1.68 7 -1 7 C-1.020625 6.030625 -1.04125 5.06125 -1.0625 4.0625 C-1 1 -1 1 0 0 Z " fill="#2A82BC" transform="translate(14,25)"/>
<path d="M0 0 C0.33 0 0.66 0 1 0 C1.02698189 1.62490954 1.04638757 3.24994633 1.0625 4.875 C1.07410156 5.77992187 1.08570312 6.68484375 1.09765625 7.6171875 C1 10 1 10 0 12 C-3.14930893 13.04976964 -5.38814456 13.10131595 -8.6875 13.0625 C-9.68136719 13.05347656 -10.67523438 13.04445313 -11.69921875 13.03515625 C-12.83810547 13.01775391 -12.83810547 13.01775391 -14 13 C-13.67 12.34 -13.34 11.68 -13 11 C-10.49609375 10.3671875 -10.49609375 10.3671875 -7.4375 9.875 C-5.91962891 9.62363281 -5.91962891 9.62363281 -4.37109375 9.3671875 C-3.58863281 9.24601562 -2.80617188 9.12484375 -2 9 C-1.855625 7.700625 -1.71125 6.40125 -1.5625 5.0625 C-1.125 1.125 -1.125 1.125 0 0 Z " fill="#49324C" transform="translate(67,88)"/>
<path d="M0 0 C5.28 0 10.56 0 16 0 C16.33 1.32 16.66 2.64 17 4 C16.67 4.33 16.34 4.66 16 5 C14.30858344 4.91036938 12.62040398 4.75422324 10.9375 4.5625 C9.55884766 4.40974609 9.55884766 4.40974609 8.15234375 4.25390625 C7.44207031 4.17011719 6.73179688 4.08632812 6 4 C5.67 3.01 5.34 2.02 5 1 C3.35 1 1.7 1 0 1 C0 0.67 0 0.34 0 0 Z " fill="#541D1A" transform="translate(50,89)"/>
<path d="M0 0 C5.35048061 0.37328935 7.50912907 1.9957657 11 6 C7.52674819 7.1577506 4.63932552 7.06866652 1 7 C0.67 4.69 0.34 2.38 0 0 Z " fill="#D84408" transform="translate(64,73)"/>
<path d="M0 0 C-1 2 -2 4 -3 6 C-2.34 6.33 -1.68 6.66 -1 7 C-1.99 8.485 -1.99 8.485 -3 10 C-3.66 10 -4.32 10 -5 10 C-5 9.34 -5 8.68 -5 8 C-5.99 8.33 -6.98 8.66 -8 9 C-8.33 6.36 -8.66 3.72 -9 1 C-2.25 0 -2.25 0 0 0 Z " fill="#332022" transform="translate(69,32)"/>
<path d="M0 0 C0.33 0 0.66 0 1 0 C1 2.97 1 5.94 1 9 C3.31 9.33 5.62 9.66 8 10 C8 10.99 8 11.98 8 13 C4.7 13.33 1.4 13.66 -2 14 C-1.85866501 12.22880197 -1.71176792 10.45804713 -1.5625 8.6875 C-1.48128906 7.70136719 -1.40007813 6.71523437 -1.31640625 5.69921875 C-1 3 -1 3 0 0 Z " fill="#594462" transform="translate(33,88)"/>
<path d="M0 0 C1.98 0.495 1.98 0.495 4 1 C3.67 4.3 3.34 7.6 3 11 C3.66 11 4.32 11 5 11 C5 11.66 5 12.32 5 13 C4.01 13 3.02 13 2 13 C1.67 13.66 1.34 14.32 1 15 C0.855625 14.195625 0.71125 13.39125 0.5625 12.5625 C0.25864751 10.07896294 0.25864751 10.07896294 -1 9 C-1.23728814 2.47457627 -1.23728814 2.47457627 0 0 Z " fill="#1F65A1" transform="translate(96,31)"/>
<path d="M0 0 C3.65316671 1.24976756 4.78065836 1.67098753 7 5 C7 6.32 7 7.64 7 9 C5.02 9 3.04 9 1 9 C1.33 10.32 1.66 11.64 2 13 C1.01 12.67 0.02 12.34 -1 12 C-1 10.35 -1 8.7 -1 7 C0.32 6.67 1.64 6.34 3 6 C3 5.01 3 4.02 3 3 C2.01 2.67 1.02 2.34 0 2 C0 1.34 0 0.68 0 0 Z " fill="#EEB999" transform="translate(54,14)"/>
<path d="M0 0 C2 1 4 2 6 3 C6.40729228 5.32156597 6.74438677 7.6568787 7 10 C6.34 10 5.68 10 5 10 C5 9.01 5 8.02 5 7 C4.236875 7.061875 3.47375 7.12375 2.6875 7.1875 C0 7 0 7 -1.8125 5.5 C-2.204375 5.005 -2.59625 4.51 -3 4 C-2.01 2.68 -1.02 1.36 0 0 Z " fill="#CC5620" transform="translate(25,62)"/>
<path d="M0 0 C8.19256018 0.35010941 8.19256018 0.35010941 11.5625 3.0625 C12.036875 3.701875 12.51125 4.34125 13 5 C11.625 7.5 11.625 7.5 10 10 C9.34 10 8.68 10 8 10 C7.67 7.69 7.34 5.38 7 3 C4.69 2.34 2.38 1.68 0 1 C0 0.67 0 0.34 0 0 Z " fill="#C28B7C" transform="translate(11,58)"/>
<path d="M0 0 C2.42501634 0.47153095 4.81107261 0.94602074 7.1875 1.625 C9.08903493 2.21346359 9.08903493 2.21346359 11 1 C11 3.31 11 5.62 11 8 C10.01 8.33 9.02 8.66 8 9 C7.938125 8.071875 7.938125 8.071875 7.875 7.125 C7.58625 6.42375 7.2975 5.7225 7 5 C5.01276732 4.29618843 3.01222047 3.6288189 1 3 C0.67 2.01 0.34 1.02 0 0 Z " fill="#35292B" transform="translate(41,39)"/>
<path d="M0 0 C2.64 0 5.28 0 8 0 C7.34 2.31 6.68 4.62 6 7 C4.68 7 3.36 7 2 7 C1.34 4.69 0.68 2.38 0 0 Z " fill="#91A6CC" transform="translate(41,68)"/>
<path d="M0 0 C0.99 0 1.98 0 3 0 C3 0.66 3 1.32 3 2 C2.34 2 1.68 2 1 2 C1 4.97 1 7.94 1 11 C-0.32 11.33 -1.64 11.66 -3 12 C-4.12668965 8.61993106 -3.89636912 8.0359269 -2.625 4.875 C-2.34914062 4.17117187 -2.07328125 3.46734375 -1.7890625 2.7421875 C-1 1 -1 1 0 0 Z " fill="#B27C64" transform="translate(53,58)"/>
<path d="M0 0 C0.66 0 1.32 0 2 0 C2 3.96 2 7.92 2 12 C-1.3 11.67 -4.6 11.34 -8 11 C-7.34 10.01 -6.68 9.02 -6 8 C-6 8.66 -6 9.32 -6 10 C-5.34 10 -4.68 10 -4 10 C-4 9.34 -4 8.68 -4 8 C-3.01 8 -2.02 8 -1 8 C-0.67 5.36 -0.34 2.72 0 0 Z " fill="#41A0D4" transform="translate(90,21)"/>
<path d="M0 0 C0.99 0.33 1.98 0.66 3 1 C1.84826645 3.46800047 0.95216435 5.04783565 -1 7 C-3.1640625 7.1953125 -3.1640625 7.1953125 -5.625 7.125 C-6.44226563 7.10695313 -7.25953125 7.08890625 -8.1015625 7.0703125 C-8.72804688 7.04710938 -9.35453125 7.02390625 -10 7 C-6.96803331 3.78315729 -3.95336778 1.97668389 0 0 Z " fill="#194986" transform="translate(82,95)"/>
<path d="M0 0 C0.33 0.66 0.66 1.32 1 2 C3.32156597 2.40729228 5.6568787 2.74438677 8 3 C8 3.66 8 4.32 8 5 C10.31 5 12.62 5 15 5 C15.33 3.68 15.66 2.36 16 1 C15.67 3.31 15.34 5.62 15 8 C9.06 7.01 9.06 7.01 3 6 C3 5.34 3 4.68 3 4 C2.01 3.67 1.02 3.34 0 3 C0 2.01 0 1.02 0 0 Z " fill="#813F2A" transform="translate(44,8)"/>
<path d="M0 0 C6.625 -0.125 6.625 -0.125 10 1 C9.67 2.32 9.34 3.64 9 5 C7.68 5.33 6.36 5.66 5 6 C5 5.34 5 4.68 5 4 C3.35 4 1.7 4 0 4 C0 2.68 0 1.36 0 0 Z " fill="#3D9DC9" transform="translate(68,88)"/>
<path d="M0 0 C2.4375 0.75 2.4375 0.75 5 2 C5.8125 4.125 5.8125 4.125 6 6 C3.83125748 5.49396008 2.00032373 5.00016187 0 4 C0.66 6.64 1.32 9.28 2 12 C-1 10 -1 10 -1.8125 6.5625 C-2 3 -2 3 0 0 Z " fill="#4D302D" transform="translate(42,23)"/>
<path d="M0 0 C0.33 0.66 0.66 1.32 1 2 C-0.21484375 4.8203125 -0.21484375 4.8203125 -1.9375 8.125 C-2.50339844 9.22070312 -3.06929687 10.31640625 -3.65234375 11.4453125 C-4.09707031 12.28835937 -4.54179688 13.13140625 -5 14 C-5.66 13.67 -6.32 13.34 -7 13 C-7 12.34 -7 11.68 -7 11 C-7.99 10.67 -8.98 10.34 -10 10 C-10 9.34 -10 8.68 -10 8 C-8.35 8 -6.7 8 -5 8 C-4.67 6.35 -4.34 4.7 -4 3 C-3.01 3 -2.02 3 -1 3 C-0.67 2.01 -0.34 1.02 0 0 Z " fill="#498EB7" transform="translate(40,8)"/>
<path d="M0 0 C2.66666667 2.66666667 5.33333333 5.33333333 8 8 C7.67 8.99 7.34 9.98 7 11 C1.39344262 8.68424804 1.39344262 8.68424804 -0.4375 5.5 C-1 3 -1 3 0 0 Z " fill="#A72F12" transform="translate(76,64)"/>
<path d="M0 0 C1.98 0.66 3.96 1.32 6 2 C6 3.32 6 4.64 6 6 C2.7 6 -0.6 6 -4 6 C-2.68 4.02 -1.36 2.04 0 0 Z " fill="#E2530B" transform="translate(62,54)"/>
<path d="M0 0 C5.75 0.75 5.75 0.75 8 3 C8 3.99 8 4.98 8 6 C1.47692308 5.38461538 1.47692308 5.38461538 -0.9375 3.4375 C-1.288125 2.963125 -1.63875 2.48875 -2 2 C-1.34 2 -0.68 2 0 2 C0 1.34 0 0.68 0 0 Z " fill="#509BBD" transform="translate(8,47)"/>
<path d="M0 0 C-0.3358407 3.10652645 -0.59049279 4.60414303 -2.875 6.8125 C-5 8 -5 8 -8 8 C-7.6641593 4.89347355 -7.40950721 3.39585697 -5.125 1.1875 C-3 0 -3 0 0 0 Z " fill="#80C3D5" transform="translate(62,42)"/>
<path d="M0 0 C1.47968324 0.14049518 2.95874516 0.28754826 4.4375 0.4375 C5.67306641 0.55931641 5.67306641 0.55931641 6.93359375 0.68359375 C9 1 9 1 10 2 C10.14115161 4.67058851 10.04247107 7.32432238 10 10 C9.67 10 9.34 10 9 10 C8.67 8.35 8.34 6.7 8 5 C6.68 5 5.36 5 4 5 C4 4.34 4 3.68 4 3 C2.68 2.34 1.36 1.68 0 1 C0 0.67 0 0.34 0 0 Z " fill="#6A3943" transform="translate(25,83)"/>
<path d="M0 0 C0.93972656 0.23396484 0.93972656 0.23396484 1.8984375 0.47265625 C3.12433594 0.76462891 3.12433594 0.76462891 4.375 1.0625 C5.59316406 1.35833984 5.59316406 1.35833984 6.8359375 1.66015625 C9.04161284 2.22109319 9.04161284 2.22109319 11 1 C11 2.65 11 4.3 11 6 C7.7 5.34 4.4 4.68 1 4 C0.67 2.68 0.34 1.36 0 0 Z " fill="#F4B795" transform="translate(51,72)"/>
<path d="M0 0 C0.99 0.66 1.98 1.32 3 2 C3.1875 5.625 3.1875 5.625 3 9 C1.68 9 0.36 9 -1 9 C-1.33 6.69 -1.66 4.38 -2 2 C-1.34 2 -0.68 2 0 2 C0 1.34 0 0.68 0 0 Z " fill="#55B4D6" transform="translate(83,59)"/>
<path d="M0 0 C1.953125 0.6796875 1.953125 0.6796875 4 2 C4.609375 4.3828125 4.609375 4.3828125 4.75 7.125 C4.80671875 8.03507812 4.8634375 8.94515625 4.921875 9.8828125 C4.94765625 10.58148438 4.9734375 11.28015625 5 12 C4.01 12.495 4.01 12.495 3 13 C2.34 12.67 1.68 12.34 1 12 C1.33 9.69 1.66 7.38 2 5 C1.34 5 0.68 5 0 5 C0 3.35 0 1.7 0 0 Z " fill="#B0523E" transform="translate(75,48)"/>
<path d="M0 0 C4.04420651 1.77945087 7.46078487 4.39529673 11 7 C10.67 7.66 10.34 8.32 10 9 C7.03 8.01 4.06 7.02 1 6 C0.67 4.02 0.34 2.04 0 0 Z " fill="#2A1918" transform="translate(40,33)"/>
<path d="M0 0 C0 0.66 0 1.32 0 2 C-0.639375 2.28875 -1.27875 2.5775 -1.9375 2.875 C-4.15206079 3.82823451 -4.15206079 3.82823451 -5 6 C-6.97888961 6.72693904 -8.97954558 7.39816251 -11 8 C-9.54205607 2.41121495 -9.54205607 2.41121495 -7.1875 0.625 C-4.69940916 -0.0858831 -2.57533152 -0.14307397 0 0 Z " fill="#2E70A4" transform="translate(44,5)"/>
<path d="M0 0 C0.99 0.33 1.98 0.66 3 1 C3.12246094 1.64453125 3.24492188 2.2890625 3.37109375 2.953125 C3.57863281 3.62859375 3.78617188 4.3040625 4 5 C6.31315325 6.14293555 6.31315325 6.14293555 9.0625 6.75 C9.98160156 6.99234375 10.90070312 7.2346875 11.84765625 7.484375 C12.55792969 7.65453125 13.26820312 7.8246875 14 8 C14 8.33 14 8.66 14 9 C7.07911053 9.60709557 4.32886161 8.44071801 -1 4 C-0.67 2.68 -0.34 1.36 0 0 Z " fill="#D99077" transform="translate(48,70)"/>
<path d="M0 0 C-0.66 1.32 -1.32 2.64 -2 4 C-4.64 3.34 -7.28 2.68 -10 2 C-10 1.01 -10 0.02 -10 -1 C-6.18510326 -2.46726798 -3.70988378 -1.43336419 0 0 Z " fill="#91C8D2" transform="translate(78,45)"/>
<path d="M0 0 C1.32 0 2.64 0 4 0 C4.1875 2.875 4.1875 2.875 4 6 C1 8 1 8 -2 8 C-1.125 1.125 -1.125 1.125 0 0 Z " fill="#BBF2FA" transform="translate(83,40)"/>
<path d="M0 0 C0.66 0 1.32 0 2 0 C2.36463732 1.74784829 2.7163078 3.49840502 3.0625 5.25 C3.25972656 6.22453125 3.45695312 7.1990625 3.66015625 8.203125 C3.98397535 10.868119 3.85503199 12.48871723 3 15 C2.67 13.68 2.34 12.36 2 11 C1.34 11 0.68 11 0 11 C0 7.37 0 3.74 0 0 Z " fill="#672619" transform="translate(37,18)"/>
<path d="M0 0 C0.33 0 0.66 0 1 0 C1 2.64 1 5.28 1 8 C-5.75 9.125 -5.75 9.125 -8 8 C-8 7.34 -8 6.68 -8 6 C-8.66 5.67 -9.32 5.34 -10 5 C-8.35 5 -6.7 5 -5 5 C-4.67 4.34 -4.34 3.68 -4 3 C-3.01 4.485 -3.01 4.485 -2 6 C-1.34 6 -0.68 6 0 6 C0 4.02 0 2.04 0 0 Z " fill="#93756E" transform="translate(52,41)"/>
<path d="M0 0 C1.32 0 2.64 0 4 0 C4 3.63 4 7.26 4 11 C3.34 11 2.68 11 2 11 C0.57741188 7.17679443 -0.24042276 4.08718695 0 0 Z " fill="#33222C" transform="translate(40,86)"/>
<path d="M0 0 C0.66 0 1.32 0 2 0 C3.35384615 6.4 3.35384615 6.4 1.5625 9.4375 C1.046875 9.953125 0.53125 10.46875 0 11 C-0.99 10.67 -1.98 10.34 -3 10 C-2.01 6.7 -1.02 3.4 0 0 Z " fill="#5A6E7E" transform="translate(75,32)"/>
<path d="M0 0 C1.45792884 -0.05399736 2.91642712 -0.09279177 4.375 -0.125 C5.18710937 -0.14820313 5.99921875 -0.17140625 6.8359375 -0.1953125 C9 0 9 0 11 2 C9.906875 2.061875 8.81375 2.12375 7.6875 2.1875 C3.8525473 2.59877264 3.8525473 2.59877264 2.1875 5.5625 C1.5996875 6.7690625 1.5996875 6.7690625 1 8 C0.34 8 -0.32 8 -1 8 C-0.67 5.36 -0.34 2.72 0 0 Z " fill="#B9E9E6" transform="translate(33,46)"/>
<path d="M0 0 C0.66 0.33 1.32 0.66 2 1 C2.4140625 3.94140625 2.4140625 3.94140625 2.625 7.5625 C2.69976563 8.76003906 2.77453125 9.95757812 2.8515625 11.19140625 C2.90054687 12.11824219 2.94953125 13.04507813 3 14 C-0.90625 11.3984375 -0.90625 11.3984375 -1.75 7.8125 C-1.8325 6.884375 -1.915 5.95625 -2 5 C-1.34 5 -0.68 5 0 5 C0 3.35 0 1.7 0 0 Z " fill="#6ECDE3" transform="translate(25,49)"/>
<path d="M0 0 C0.66 0 1.32 0 2 0 C2 2.31 2 4.62 2 7 C1.01 7 0.02 7 -1 7 C-1 7.66 -1 8.32 -1 9 C-1.66 9 -2.32 9 -3 9 C-3 8.34 -3 7.68 -3 7 C-3.66 7 -4.32 7 -5 7 C-5 6.34 -5 5.68 -5 5 C-5.66 5 -6.32 5 -7 5 C-7 4.34 -7 3.68 -7 3 C-4.69 3.66 -2.38 4.32 0 5 C0 3.35 0 1.7 0 0 Z " fill="#9FE4F5" transform="translate(87,22)"/>
<path d="M0 0 C4.29 0 8.58 0 13 0 C13 2.97 13 5.94 13 9 C12.34 9 11.68 9 11 9 C11 6.69 11 4.38 11 2 C10.01 2.33 9.02 2.66 8 3 C8 2.34 8 1.68 8 1 C5.36 1 2.72 1 0 1 C0 0.67 0 0.34 0 0 Z " fill="#49A7DA" transform="translate(17,16)"/>
<path d="M0 0 C2.31 0 4.62 0 7 0 C7 1.32 7 2.64 7 4 C9.64 4 12.28 4 15 4 C15 4.33 15 4.66 15 5 C4.11971831 5.57042254 4.11971831 5.57042254 0 2 C0 1.34 0 0.68 0 0 Z " fill="#3282BB" transform="translate(76,14)"/>
<path d="M0 0 C2.475 0.99 2.475 0.99 5 2 C5.33 4.31 5.66 6.62 6 9 C3.525 8.01 3.525 8.01 1 7 C0.67 4.69 0.34 2.38 0 0 Z " fill="#652725" transform="translate(35,85)"/>
<path d="M0 0 C0.66 0 1.32 0 2 0 C2.33 1.65 2.66 3.3 3 5 C3.66 5 4.32 5 5 5 C4.67 5.99 4.34 6.98 4 8 C2.68 7.67 1.36 7.34 0 7 C0 6.34 0 5.68 0 5 C-1.32 5.33 -2.64 5.66 -4 6 C-2.84826645 3.53199953 -1.95216435 1.95216435 0 0 Z " fill="#8C6F69" transform="translate(59,35)"/>
<path d="M0 0 C1.65 0.33 3.3 0.66 5 1 C5 2.65 5 4.3 5 6 C0.25 5.25 0.25 5.25 -2 3 C-1.34 2.01 -0.68 1.02 0 0 Z " fill="#62B7E1" transform="translate(82,21)"/>
<path d="M0 0 C0.99 0 1.98 0 3 0 C3 2.64 3 5.28 3 8 C2.01 8.33 1.02 8.66 0 9 C-1.36623674 6.26752652 -1.128426 4.01801098 -1 1 C-0.67 0.67 -0.34 0.34 0 0 Z " fill="#59ABD3" transform="translate(68,21)"/>
<path d="M0 0 C3.63 0.33 7.26 0.66 11 1 C11 1.66 11 2.32 11 3 C3.375 4.25 3.375 4.25 0 2 C0 1.34 0 0.68 0 0 Z " fill="#541A16" transform="translate(59,84)"/>
<path d="M0 0 C-0.33 0.99 -0.66 1.98 -1 3 C-4.3 3 -7.6 3 -11 3 C-10.67 2.01 -10.34 1.02 -10 0 C-6.30458414 -0.95024979 -3.69541586 -0.95024979 0 0 Z " fill="#C0CAE0" transform="translate(50,65)"/>
<path d="M0 0 C1.98 0 3.96 0 6 0 C5.01 0.495 5.01 0.495 4 1 C4.33 3.31 4.66 5.62 5 8 C4.01 8.33 3.02 8.66 2 9 C1.87625 8.030625 1.7525 7.06125 1.625 6.0625 C1.41875 5.051875 1.2125 4.04125 1 3 C0.34 2.67 -0.32 2.34 -1 2 C-0.67 1.34 -0.34 0.68 0 0 Z " fill="#57BBE2" transform="translate(78,33)"/>
<path d="M0 0 C1.32 0.66 2.64 1.32 4 2 C3.01 4.97 2.02 7.94 1 11 C0.34 10.34 -0.32 9.68 -1 9 C-0.9765625 6.8359375 -0.9765625 6.8359375 -0.625 4.375 C-0.51414063 3.55773437 -0.40328125 2.74046875 -0.2890625 1.8984375 C-0.19367187 1.27195312 -0.09828125 0.64546875 0 0 Z " fill="#55271D" transform="translate(60,8)"/>
<path d="M0 0 C0.99 0.33 1.98 0.66 3 1 C3 1.99 3 2.98 3 4 C3.66 4.33 4.32 4.66 5 5 C5 5.66 5 6.32 5 7 C5.99 7 6.98 7 8 7 C8 7.66 8 8.32 8 9 C4.66666667 7.66666667 1.33333333 6.33333333 -2 5 C-1.34 3.35 -0.68 1.7 0 0 Z " fill="#C86E46" transform="translate(42,7)"/>
<path d="M0 0 C2.31 0 4.62 0 7 0 C7 1.65 7 3.3 7 5 C4.03 4.505 4.03 4.505 1 4 C0.67 2.68 0.34 1.36 0 0 Z " fill="#2C70A3" transform="translate(25,91)"/>
<path d="M0 0 C1.66926454 0.97473126 3.33535642 1.95489789 5 2.9375 C6.3921875 3.75541016 6.3921875 3.75541016 7.8125 4.58984375 C8.534375 5.05519531 9.25625 5.52054687 10 6 C10 6.33 10 6.66 10 7 C6.70985003 7.22432841 4.57722754 7.30380397 1.625 5.75 C0 4 0 4 0 0 Z " fill="#AC6654" transform="translate(47,74)"/>
<path d="M0 0 C0.33 0.99 0.66 1.98 1 3 C-2.3 3 -5.6 3 -9 3 C-9 2.01 -9 1.02 -9 0 C-5.93109813 -1.53445094 -3.29905734 -0.54984289 0 0 Z " fill="#9ADCE6" transform="translate(39,43)"/>
<path d="M0 0 C2.31 0 4.62 0 7 0 C7.33 0.66 7.66 1.32 8 2 C7.01 3.485 7.01 3.485 6 5 C4.35 4.67 2.7 4.34 1 4 C0.67 2.68 0.34 1.36 0 0 Z " fill="#29100E" transform="translate(51,5)"/>
<path d="M0 0 C0 0.66 0 1.32 0 2 C-2.49409061 3.57035335 -3.70443416 4.0274945 -6.6875 3.75 C-7.8321875 3.37875 -7.8321875 3.37875 -9 3 C-9.33 2.34 -9.66 1.68 -10 1 C-6.52674819 -0.1577506 -3.63932552 -0.06866652 0 0 Z " fill="#622627" transform="translate(61,93)"/>
<path d="M0 0 C1.73662334 3.22515763 2.8905928 6.51329166 4 10 C2.02 10.33 0.04 10.66 -2 11 C-1.855625 10.29875 -1.71125 9.5975 -1.5625 8.875 C-0.98521625 5.92443859 -0.48304859 2.96729849 0 0 Z " fill="#D78246" transform="translate(33,54)"/>
<path d="M0 0 C0.33 0 0.66 0 1 0 C1 3.63 1 7.26 1 11 C-0.32 11 -1.64 11 -3 11 C-2.69078116 9.54096742 -2.37751201 8.08279278 -2.0625 6.625 C-1.88847656 5.81289063 -1.71445313 5.00078125 -1.53515625 4.1640625 C-1 2 -1 2 0 0 Z " fill="#2275AC" transform="translate(7,38)"/>
<path d="M0 0 C0.33 0 0.66 0 1 0 C1 1.98 1 3.96 1 6 C0.34 6 -0.32 6 -1 6 C-0.34 8.64 0.32 11.28 1 14 C0.01 14 -0.98 14 -2 14 C-3 13 -3 13 -3.0625 9.4375 C-3.041875 8.303125 -3.02125 7.16875 -3 6 C-2.01 5.67 -1.02 5.34 0 5 C0 3.35 0 1.7 0 0 Z " fill="#BEA38A" transform="translate(37,29)"/>
<path d="M0 0 C2.46324069 3.69486103 2.38991688 5.63293092 2 10 C0.5 11.9375 0.5 11.9375 -1 13 C-1.33 10.69 -1.66 8.38 -2 6 C-1.34 6 -0.68 6 0 6 C0 4.02 0 2.04 0 0 Z " fill="#9D3F23" transform="translate(38,29)"/>
<path d="M0 0 C1.32 0.66 2.64 1.32 4 2 C4 2.66 4 3.32 4 4 C4.66 4.33 5.32 4.66 6 5 C3 7 3 7 0.8125 6.625 C0.214375 6.41875 -0.38375 6.2125 -1 6 C-0.67 4.02 -0.34 2.04 0 0 Z " fill="#24466D" transform="translate(64,26)"/>
<path d="M0 0 C-0.33 0.99 -0.66 1.98 -1 3 C-3.97 3 -6.94 3 -10 3 C-10.33 2.34 -10.66 1.68 -11 1 C-7.32589215 -0.17571451 -3.83070817 -0.07366746 0 0 Z " fill="#4E2D3D" transform="translate(86,85)"/>
<path d="M0 0 C-0.3125 1.875 -0.3125 1.875 -1 4 C-1.99 4.66 -2.98 5.32 -4 6 C-4.66 6.99 -5.32 7.98 -6 9 C-6 6.36 -6 3.72 -6 1 C-3.92446352 0.4465236 -2.15634036 0 0 0 Z " fill="#BD8979" transform="translate(59,40)"/>
<path d="M0 0 C1.98 0.66 3.96 1.32 6 2 C6.33 3.65 6.66 5.3 7 7 C4.625 6.3125 4.625 6.3125 2 5 C0.6875 2.375 0.6875 2.375 0 0 Z " fill="#5A7CA2" transform="translate(65,7)"/>
<path d="M0 0 C2.64 0 5.28 0 8 0 C8.5625 1.9375 8.5625 1.9375 9 4 C8 5 8 5 5.4375 5.0625 C4.2309375 5.0315625 4.2309375 5.0315625 3 5 C3 4.34 3 3.68 3 3 C3.66 3 4.32 3 5 3 C5 2.34 5 1.68 5 1 C3.35 1 1.7 1 0 1 C0 0.67 0 0.34 0 0 Z " fill="#43212A" transform="translate(58,89)"/>
<path d="M0 0 C1.65 0 3.3 0 5 0 C5 1.32 5 2.64 5 4 C2.69 4.33 0.38 4.66 -2 5 C-1.34 3.35 -0.68 1.7 0 0 Z " fill="#673126" transform="translate(63,42)"/>
<path d="M0 0 C-1.0975223 2.99324263 -1.67682892 3.84610901 -4.625 5.25 C-5.40875 5.4975 -6.1925 5.745 -7 6 C-7 4.35 -7 2.7 -7 1 C-2.25 0 -2.25 0 0 0 Z " fill="#1B0F11" transform="translate(69,32)"/>
<path d="M0 0 C0.66 0.33 1.32 0.66 2 1 C1.01 2.98 0.02 4.96 -1 7 C-2.32 7 -3.64 7 -5 7 C-3.70700306 4.11562221 -2.34058637 2.12780579 0 0 Z " fill="#53271C" transform="translate(71,31)"/>
<path d="M0 0 C0.66 0 1.32 0 2 0 C2 2.31 2 4.62 2 7 C0.68 7 -0.64 7 -2 7 C-1.34 4.69 -0.68 2.38 0 0 Z " fill="#96A8CC" transform="translate(43,77)"/>
<path d="M0 0 C1.67542976 0.28604898 3.34385343 0.61781233 5 1 C4.34 2.65 3.68 4.3 3 6 C2.01 6 1.02 6 0 6 C-0.38218767 4.34385343 -0.71395102 2.67542976 -1 1 C-0.67 0.67 -0.34 0.34 0 0 Z " fill="#4698BA" transform="translate(13,60)"/>
<path d="M0 0 C1.32 0 2.64 0 4 0 C3.67 2.97 3.34 5.94 3 9 C0.23776722 6.23776722 0.42143709 3.79293383 0 0 Z " fill="#77CFE4" transform="translate(79,52)"/>
<path d="M0 0 C0.99 0 1.98 0 3 0 C3 2.97 3 5.94 3 9 C2.01 9.495 2.01 9.495 1 10 C-1.125 3.375 -1.125 3.375 0 0 Z " fill="#E5B19B" transform="translate(45,50)"/>
<path d="M0 0 C0.33 0 0.66 0 1 0 C1 3.3 1 6.6 1 10 C-0.65 10 -2.3 10 -4 10 C-3.71125 9.46375 -3.4225 8.9275 -3.125 8.375 C-1.83288192 5.64719516 -0.91441408 2.87387282 0 0 Z " fill="#3DA1CE" transform="translate(94,44)"/>
<path d="M0 0 C0 1.65 0 3.3 0 5 C-1.65 5 -3.3 5 -5 5 C-5.33 4.34 -5.66 3.68 -6 3 C-3.375 0 -3.375 0 0 0 Z " fill="#5AB8E6" transform="translate(23,21)"/>
<path d="M0 0 C0 0.99 0 1.98 0 3 C-2.31 3.33 -4.62 3.66 -7 4 C-7.33 3.34 -7.66 2.68 -8 2 C-4.91190305 0.23537317 -3.76687864 0 0 0 Z " fill="#542936" transform="translate(65,94)"/>
<path d="M0 0 C2.5 1.375 2.5 1.375 5 3 C5 3.66 5 4.32 5 5 C4.01 5 3.02 5 2 5 C1.67 5.99 1.34 6.98 1 8 C0.67 8 0.34 8 0 8 C0 5.36 0 2.72 0 0 Z " fill="#369DC9" transform="translate(87,60)"/>
<path d="M0 0 C2.475 0.495 2.475 0.495 5 1 C5 2.98 5 4.96 5 7 C2.5 5.1875 2.5 5.1875 0 3 C0 2.01 0 1.02 0 0 Z " fill="#CD9E8E" transform="translate(3,49)"/>
<path d="M0 0 C2.97 0 5.94 0 9 0 C8.01 1.485 8.01 1.485 7 3 C5.33385392 3.04165365 3.66614608 3.04165365 2 3 C1.34 3.66 0.68 4.32 0 5 C0 3.35 0 1.7 0 0 Z " fill="#C8F8FA" transform="translate(11,39)"/>
<path d="M0 0 C1.98 0.99 1.98 0.99 4 2 C4 4.64 4 7.28 4 10 C2 9 2 9 0.875 6.6875 C0 4 0 4 0 0 Z " fill="#C78C78" transform="translate(42,27)"/>
<path d="M0 0 C1.9375 0.5 1.9375 0.5 4 2 C4.68790422 4.69658452 4.81946464 7.2017019 5 10 C4.01 9.34 3.02 8.68 2 8 C1.8125 5.375 1.8125 5.375 2 3 C1.34 3 0.68 3 0 3 C0 2.01 0 1.02 0 0 Z " fill="#38405E" transform="translate(67,12)"/>
<path d="M0 0 C2.3828125 0.0234375 2.3828125 0.0234375 5.125 0.375 C6.03507812 0.48585937 6.94515625 0.59671875 7.8828125 0.7109375 C8.93082031 0.85402344 8.93082031 0.85402344 10 1 C10 1.33 10 1.66 10 2 C8.02 2 6.04 2 4 2 C3.67 3.32 3.34 4.64 3 6 C3 4.68 3 3.36 3 2 C1.35 2 -0.3 2 -2 2 C-1.34 1.34 -0.68 0.68 0 0 Z " fill="#B8481D" transform="translate(62,46)"/>
<path d="M0 0 C2.64 0 5.28 0 8 0 C6.515 1.98 6.515 1.98 5 4 C3.0625 3.6875 3.0625 3.6875 1 3 C0.67 2.01 0.34 1.02 0 0 Z " fill="#D88474" transform="translate(49,34)"/>
<path d="M0 0 C0.66 0 1.32 0 2 0 C2.33 2.31 2.66 4.62 3 7 C2.01 7.66 1.02 8.32 0 9 C0 6.03 0 3.06 0 0 Z " fill="#44A3D2" transform="translate(31,19)"/>
<path d="M0 0 C1.2065625 0.0309375 1.2065625 0.0309375 2.4375 0.0625 C2.1075 1.7125 1.7775 3.3625 1.4375 5.0625 C0.1175 5.0625 -1.2025 5.0625 -2.5625 5.0625 C-3.125 3.125 -3.125 3.125 -3.5625 1.0625 C-2.5625 0.0625 -2.5625 0.0625 0 0 Z " fill="#C43E0E" transform="translate(35.5625,63.9375)"/>
<path d="M0 0 C0.66 0.33 1.32 0.66 2 1 C2 2.65 2 4.3 2 6 C0.02 6.99 0.02 6.99 -2 8 C-1.125 2.25 -1.125 2.25 0 0 Z " fill="#61241C" transform="translate(17,62)"/>
<path d="M0 0 C1.32 0.66 2.64 1.32 4 2 C3.34 3.65 2.68 5.3 2 7 C1.34 7 0.68 7 0 7 C-0.38133299 5.0085944 -0.71325582 3.00720923 -1 1 C-0.67 0.67 -0.34 0.34 0 0 Z " fill="#D55518" transform="translate(42,48)"/>
<path d="M0 0 C1.65 0.33 3.3 0.66 5 1 C4.67 1.99 4.34 2.98 4 4 C2.02 4 0.04 4 -2 4 C-1.34 2.68 -0.68 1.36 0 0 Z " fill="#A2E4F5" transform="translate(13,41)"/>
<path d="M0 0 C1.98 0.66 3.96 1.32 6 2 C6 2.66 6 3.32 6 4 C4.02 4.33 2.04 4.66 0 5 C0 3.35 0 1.7 0 0 Z " fill="#39B7E8" transform="translate(88,40)"/>
<path d="M0 0 C1.98 0 3.96 0 6 0 C6.33 0.66 6.66 1.32 7 2 C5.35 2 3.7 2 2 2 C2.33 3.32 2.66 4.64 3 6 C2.01 5.67 1.02 5.34 0 5 C0 3.35 0 1.7 0 0 Z " fill="#BF856C" transform="translate(53,21)"/>
<path d="M0 0 C-0.66 1.32 -1.32 2.64 -2 4 C-2 3.34 -2 2.68 -2 2 C-3.98 2 -5.96 2 -8 2 C-8.33 1.34 -8.66 0.68 -9 0 C-3.375 -1.125 -3.375 -1.125 0 0 Z " fill="#712113" transform="translate(72,83)"/>
<path d="M0 0 C0.33 0 0.66 0 1 0 C1 2.97 1 5.94 1 9 C0.01 9 -0.98 9 -2 9 C-1.125 1.125 -1.125 1.125 0 0 Z " fill="#501810" transform="translate(33,75)"/>
<path d="M0 0 C1.32 1.32 2.64 2.64 4 4 C1.36 4.33 -1.28 4.66 -4 5 C-3.34 4.01 -2.68 3.02 -2 2 C-1.34 2 -0.68 2 0 2 C0 1.34 0 0.68 0 0 Z " fill="#C63608" transform="translate(71,75)"/>
<path d="M0 0 C0.99 0.495 0.99 0.495 2 1 C2 1.66 2 2.32 2 3 C2.99 2.67 3.98 2.34 5 2 C5 3.32 5 4.64 5 6 C3.68 6 2.36 6 1 6 C0.67 4.02 0.34 2.04 0 0 Z " fill="#59B4DE" transform="translate(77,26)"/>
<path d="M0 0 C1.98 0 3.96 0 6 0 C6.33 0.66 6.66 1.32 7 2 C6.01 2 5.02 2 4 2 C4 2.66 4 3.32 4 4 C2.68 3.67 1.36 3.34 0 3 C0 2.01 0 1.02 0 0 Z " fill="#47241C" transform="translate(55,23)"/>
<path d="M0 0 C2.46800047 1.15173355 4.04783565 2.04783565 6 4 C4.35 4.33 2.7 4.66 1 5 C0.67 3.35 0.34 1.7 0 0 Z " fill="#DFDAE1" transform="translate(39,61)"/>
<path d="M0 0 C0.33 0 0.66 0 1 0 C1 2.31 1 4.62 1 7 C0.01 7.33 -0.98 7.66 -2 8 C-2.125 5.125 -2.125 5.125 -2 2 C-1.34 1.34 -0.68 0.68 0 0 Z " fill="#1B3C67" transform="translate(51,40)"/>
<path d="M0 0 C0 0.66 0 1.32 0 2 C-2.95664519 3.4783226 -5.74229737 3.06032783 -9 3 C-5.92807025 0.26939578 -4.09590633 -0.34132553 0 0 Z " fill="#326595" transform="translate(44,5)"/>
<path d="M0 0 C0.66 1.32 1.32 2.64 2 4 C-0.97 4 -3.94 4 -7 4 C-5.68 3.67 -4.36 3.34 -3 3 C-3 2.34 -3 1.68 -3 1 C-2.01 0.67 -1.02 0.34 0 0 Z " fill="#5A282E" transform="translate(74,84)"/>
<path d="M0 0 C0.99 0 1.98 0 3 0 C3 1.65 3 3.3 3 5 C0.525 4.01 0.525 4.01 -2 3 C-1.34 2.01 -0.68 1.02 0 0 Z " fill="#B1ECF5" transform="translate(91,44)"/>
<path d="M0 0 C0.66 0 1.32 0 2 0 C2 2.64 2 5.28 2 8 C1.01 7.67 0.02 7.34 -1 7 C-0.67 4.69 -0.34 2.38 0 0 Z " fill="#398EC9" transform="translate(90,21)"/>
<path d="M0 0 C1.65 0 3.3 0 5 0 C4.1875 1.9375 4.1875 1.9375 3 4 C2.01 4.33 1.02 4.66 0 5 C0 3.35 0 1.7 0 0 Z " fill="#227FC6" transform="translate(17,18)"/>
</svg>
